<svg version="1.1" id="Layer_1" xmlns="http://www.w3.org/2000/svg" xmlns:xlink="http://www.w3.org/1999/xlink" x="0px" y="0px"
	 width="100%" viewBox="0 0 1354 432" enable-background="new 0 0 1354 432" xml:space="preserve">
<path fill="#000000" opacity="1.000000" stroke="none" 
	d="
M1220.000000,433.000000 
	C1210.979126,433.000000 1201.958130,433.000000 1192.315186,432.601196 
	C1147.582153,428.122925 1112.865723,407.424255 1085.807373,371.449860 
	C1085.807373,390.285004 1085.807373,408.023346 1085.807373,425.737244 
	C975.723450,425.737244 865.995544,425.737244 756.000000,425.737244 
	C756.000000,423.672394 756.000000,421.867432 756.000000,420.062500 
	C756.000000,364.736725 756.142578,309.410156 755.831848,254.086136 
	C755.789734,246.597794 754.363647,238.831253 752.034668,231.697495 
	C746.004150,213.225662 732.793091,202.865601 713.535400,199.960419 
	C691.403992,196.621735 671.870728,200.832932 656.821228,218.693985 
	C649.398438,227.503433 645.135010,237.795242 645.093872,249.235596 
	C644.888550,306.393707 645.000000,363.552948 645.000000,420.711792 
	C645.000000,422.455963 645.000000,424.200104 645.000000,425.635681 
	C618.867676,425.635681 593.463135,425.635681 567.639038,425.635681 
	C567.639038,396.000977 567.639038,366.729950 567.639038,336.885437 
	C563.540894,345.085602 560.494019,353.142120 555.811646,360.097534 
	C548.577209,370.843903 541.022888,381.602325 532.100769,390.915222 
	C524.553589,398.792908 515.249451,405.200806 506.050049,411.233032 
	C491.698456,420.643646 475.821167,426.772217 458.902069,429.990875 
	C453.280670,431.060303 447.634735,432.000641 442.000000,433.000000 
	C433.312439,433.000000 424.624878,433.000000 415.311920,432.598846 
	C356.247284,426.300934 316.859985,394.413635 292.006592,342.220734 
	C291.319550,343.561859 290.619263,344.813049 290.028778,346.114014 
	C289.435211,347.421722 289.049805,348.829041 288.404022,350.107208 
	C277.402893,371.881866 262.706696,390.460541 242.749588,404.904755 
	C225.229736,417.584991 205.942276,425.726166 184.884506,429.981995 
	C179.281876,431.114288 173.629517,432.000702 168.000000,433.000000 
	C158.312439,433.000000 148.624878,433.000000 138.311920,432.598816 
	C127.038681,430.238983 116.106232,429.230438 105.796715,426.142303 
	C75.677773,417.120392 51.071255,399.834015 32.064953,374.619659 
	C17.335245,355.078766 8.365023,333.158508 3.956762,309.210022 
	C3.259187,305.420349 1.999695,301.734070 1.000001,298.000000 
	C1.000000,297.555542 1.000000,297.111115 1.383229,296.200134 
	C1.510972,293.489044 1.255485,291.244537 1.000000,289.000000 
	C1.000000,193.115158 1.000000,97.230324 1.000000,1.000000 
	C26.353182,1.000000 51.707932,1.000000 77.531342,1.468657 
	C78.000000,53.823143 78.000000,105.708969 78.000000,157.602219 
	C83.743088,153.177185 88.966766,148.802170 94.535126,144.921738 
	C120.597618,126.759506 149.996552,122.706406 180.600952,126.223679 
	C198.074753,128.231888 214.661469,134.131577 229.870346,143.380173 
	C252.492813,157.136963 270.520935,175.304825 283.206085,198.631302 
	C286.324707,204.366089 289.316101,210.170090 292.224823,215.675110 
	C317.525299,161.312927 359.037720,127.382599 419.321655,124.635490 
	C494.287781,121.219299 543.549805,159.913177 570.515320,228.926895 
	C571.387329,225.460312 572.194214,222.255539 572.999634,219.050385 
	C580.571716,188.918915 596.738770,164.692780 622.412720,146.953186 
	C643.322937,132.505142 666.868530,125.864738 691.855713,124.110130 
	C707.458374,123.014511 723.028381,124.535545 738.296814,128.040283 
	C764.611328,134.080521 787.180176,146.946259 804.168762,167.940521 
	C822.888000,191.073547 831.421143,218.412888 831.876587,247.959183 
	C832.405701,282.282196 832.000000,316.619598 832.000000,350.950775 
	C832.000000,352.514160 832.000000,354.077545 832.000000,356.970367 
	C837.218933,351.195312 841.405396,346.365509 845.803833,341.737213 
	C854.714661,332.360535 863.738953,323.091675 872.719238,313.781036 
	C881.930664,304.230804 891.146118,294.684418 900.358398,285.134979 
	C909.223633,275.945190 918.041870,266.709503 926.960999,257.572327 
	C943.446228,240.684189 960.007629,223.870438 976.486450,206.976196 
	C978.449829,204.963409 980.097290,202.642593 982.503052,199.721771 
	C932.651978,199.721771 883.906799,199.721771 835.317383,199.721771 
	C835.317383,176.964630 835.317383,154.559448 835.317383,132.316345 
	C917.370178,132.316345 999.105286,132.316345 1081.265381,132.316345 
	C1081.265381,152.619370 1081.265381,172.608322 1081.265381,192.728302 
	C1086.647705,185.808975 1091.400879,178.823410 1097.029419,172.633942 
	C1111.418823,156.810547 1128.217896,144.307571 1148.102295,135.877884 
	C1164.382202,128.976227 1181.279297,124.776588 1198.765747,124.257805 
	C1210.634888,123.905678 1222.689453,125.279060 1234.462402,127.139076 
	C1260.618164,131.271469 1283.225464,143.405746 1302.984253,160.642242 
	C1317.614258,173.404892 1329.117310,188.765137 1337.786133,206.270462 
	C1345.802124,222.457413 1351.198364,239.321014 1353.036987,257.318390 
	C1353.471069,261.568115 1354.334229,265.773987 1355.000000,270.000000 
	C1355.000000,276.021149 1355.000000,282.042297 1354.616699,288.664917 
	C1354.489014,291.510925 1354.744507,293.755463 1355.000000,296.000000 
	C1355.000000,296.444458 1355.000000,296.888885 1354.613281,297.786133 
	C1353.811157,300.747314 1353.470947,303.270782 1352.968628,305.761566 
	C1349.309937,323.909424 1344.060547,341.479736 1334.784424,357.688934 
	C1323.706787,377.045807 1309.548706,393.633148 1291.128418,406.299652 
	C1274.043945,418.047607 1255.556885,426.674469 1234.881470,430.059204 
	C1229.894165,430.875671 1224.959106,432.011200 1220.000000,433.000000 
M105.015984,342.524261 
	C106.903450,344.077148 108.727509,345.715515 110.688110,347.169769 
	C132.482315,363.335602 156.327301,367.097687 180.971283,355.784668 
	C211.857605,341.606018 225.856705,315.386230 227.775574,282.430939 
	C228.269150,273.954041 226.590424,265.195374 224.869522,256.778809 
	C221.763840,241.589661 214.310562,228.316025 203.550720,217.321289 
	C196.577530,210.195862 188.192245,204.624924 178.668228,200.909210 
	C162.243729,194.501328 145.833649,194.061508 129.352341,200.291580 
	C116.633446,205.099426 106.165878,212.914368 97.700554,223.694534 
	C81.341209,244.527298 75.272346,268.228882 79.263138,293.987457 
	C82.133339,312.513184 90.319580,329.042694 105.015984,342.524261 
M1175.702637,355.972839 
	C1189.643311,362.421021 1204.255737,365.236450 1219.315186,361.755554 
	C1241.425171,356.644989 1257.885010,343.467377 1267.817627,323.200592 
	C1275.984131,306.537781 1279.218140,288.785400 1277.215332,269.906799 
	C1275.560303,254.308258 1271.504395,239.725494 1262.870239,226.834473 
	C1246.672363,202.651337 1224.166504,190.394409 1194.672852,195.169632 
	C1171.954468,198.847916 1155.883301,212.936462 1145.270142,232.639450 
	C1134.051636,253.465698 1131.404785,275.925415 1135.932251,299.277618 
	C1140.702393,323.882172 1153.181396,342.935028 1175.702637,355.972839 
M442.120758,361.972900 
	C442.546265,361.717896 442.941589,361.333893 443.401581,361.226440 
	C464.818604,356.221741 479.813721,343.057526 489.947327,324.056549 
	C499.972076,305.259735 501.848297,285.124847 499.033783,264.272522 
	C496.013947,241.899139 486.936798,222.836227 469.034973,208.570450 
	C453.449036,196.150131 435.541809,191.299454 416.100433,195.208679 
	C398.861267,198.675079 384.691284,208.091293 374.262390,222.409012 
	C357.438629,245.506165 353.777527,271.866333 358.339417,299.092590 
	C361.564819,318.342285 370.564117,335.398773 386.449554,347.979187 
	C397.787903,356.958496 410.507812,362.366455 425.007904,362.913086 
	C430.399384,363.116333 435.828094,362.332092 442.120758,361.972900 
M1003.500000,357.000000 
	C1027.818481,357.000000 1052.136963,357.000000 1076.718506,357.000000 
	C1052.437134,309.087006 1051.790649,260.431274 1072.032837,209.800461 
	C1069.904419,211.772903 1068.682495,212.795273 1067.585938,213.938034 
	C1052.450073,229.711456 1037.339233,245.508942 1022.206482,261.285400 
	C1006.036316,278.143311 989.898682,295.032776 973.655273,311.819885 
	C959.686096,326.256592 945.586365,340.566956 931.553650,354.942261 
	C931.065857,355.442017 930.677551,356.038879 929.920105,357.000000 
	C954.567627,357.000000 978.533813,357.000000 1003.500000,357.000000 
z"/>
<path fill="#FFFFFF" opacity="1.000000" stroke="none" 
	d="
M1355.000000,269.531342 
	C1354.334229,265.773987 1353.471069,261.568115 1353.036987,257.318390 
	C1351.198364,239.321014 1345.802124,222.457413 1337.786133,206.270462 
	C1329.117310,188.765137 1317.614258,173.404892 1302.984253,160.642242 
	C1283.225464,143.405746 1260.618164,131.271469 1234.462402,127.139076 
	C1222.689453,125.279060 1210.634888,123.905678 1198.765747,124.257805 
	C1181.279297,124.776588 1164.382202,128.976227 1148.102295,135.877884 
	C1128.217896,144.307571 1111.418823,156.810547 1097.029419,172.633942 
	C1091.400879,178.823410 1086.647705,185.808975 1081.265381,192.728302 
	C1081.265381,172.608322 1081.265381,152.619370 1081.265381,132.316345 
	C999.105286,132.316345 917.370178,132.316345 835.317383,132.316345 
	C835.317383,154.559448 835.317383,176.964630 835.317383,199.721771 
	C883.906799,199.721771 932.651978,199.721771 982.503052,199.721771 
	C980.097290,202.642593 978.449829,204.963409 976.486450,206.976196 
	C960.007629,223.870438 943.446228,240.684189 926.960999,257.572327 
	C918.041870,266.709503 909.223633,275.945190 900.358398,285.134979 
	C891.146118,294.684418 881.930664,304.230804 872.719238,313.781036 
	C863.738953,323.091675 854.714661,332.360535 845.803833,341.737213 
	C841.405396,346.365509 837.218933,351.195312 832.000000,356.970367 
	C832.000000,354.077545 832.000000,352.514160 832.000000,350.950775 
	C832.000000,316.619598 832.405701,282.282196 831.876587,247.959183 
	C831.421143,218.412888 822.888000,191.073547 804.168762,167.940521 
	C787.180176,146.946259 764.611328,134.080521 738.296814,128.040283 
	C723.028381,124.535545 707.458374,123.014511 691.855713,124.110130 
	C666.868530,125.864738 643.322937,132.505142 622.412720,146.953186 
	C596.738770,164.692780 580.571716,188.918915 572.999634,219.050385 
	C572.194214,222.255539 571.387329,225.460312 570.515320,228.926895 
	C543.549805,159.913177 494.287781,121.219299 419.321655,124.635490 
	C359.037720,127.382599 317.525299,161.312927 292.224823,215.675110 
	C289.316101,210.170090 286.324707,204.366089 283.206085,198.631302 
	C270.520935,175.304825 252.492813,157.136963 229.870346,143.380173 
	C214.661469,134.131577 198.074753,128.231888 180.600952,126.223679 
	C149.996552,122.706406 120.597618,126.759506 94.535126,144.921738 
	C88.966766,148.802170 83.743088,153.177185 78.000000,157.602219 
	C78.000000,105.708969 78.000000,53.823143 78.000000,1.468657 
	C503.546295,1.000000 929.092590,1.000000 1355.000000,1.000000 
	C1355.000000,90.353905 1355.000000,179.708298 1355.000000,269.531342 
z"/>
<path fill="#FFFFFF" opacity="1.000000" stroke="none" 
	d="
M442.468658,433.000000 
	C447.634735,432.000641 453.280670,431.060303 458.902069,429.990875 
	C475.821167,426.772217 491.698456,420.643646 506.050049,411.233032 
	C515.249451,405.200806 524.553589,398.792908 532.100769,390.915222 
	C541.022888,381.602325 548.577209,370.843903 555.811646,360.097534 
	C560.494019,353.142120 563.540894,345.085602 567.639038,336.885437 
	C567.639038,366.729950 567.639038,396.000977 567.639038,425.635681 
	C593.463135,425.635681 618.867676,425.635681 645.000000,425.635681 
	C645.000000,424.200104 645.000000,422.455963 645.000000,420.711792 
	C645.000000,363.552948 644.888550,306.393707 645.093872,249.235596 
	C645.135010,237.795242 649.398438,227.503433 656.821228,218.693985 
	C671.870728,200.832932 691.403992,196.621735 713.535400,199.960419 
	C732.793091,202.865601 746.004150,213.225662 752.034668,231.697495 
	C754.363647,238.831253 755.789734,246.597794 755.831848,254.086136 
	C756.142578,309.410156 756.000000,364.736725 756.000000,420.062500 
	C756.000000,421.867432 756.000000,423.672394 756.000000,425.737244 
	C865.995544,425.737244 975.723450,425.737244 1085.807373,425.737244 
	C1085.807373,408.023346 1085.807373,390.285004 1085.807373,371.449860 
	C1112.865723,407.424255 1147.582153,428.122925 1191.846436,432.601196 
	C942.312439,433.000000 692.624878,433.000000 442.468658,433.000000 
z"/>
<path fill="#FFFFFF" opacity="1.000000" stroke="none" 
	d="
M168.468658,433.000000 
	C173.629517,432.000702 179.281876,431.114288 184.884506,429.981995 
	C205.942276,425.726166 225.229736,417.584991 242.749588,404.904755 
	C262.706696,390.460541 277.402893,371.881866 288.404022,350.107208 
	C289.049805,348.829041 289.435211,347.421722 290.028778,346.114014 
	C290.619263,344.813049 291.319550,343.561859 292.006592,342.220734 
	C316.859985,394.413635 356.247284,426.300934 414.843262,432.598846 
	C332.979095,433.000000 250.958206,433.000000 168.468658,433.000000 
z"/>
<path fill="#FFFFFF" opacity="1.000000" stroke="none" 
	d="
M1220.468628,433.000000 
	C1224.959106,432.011200 1229.894165,430.875671 1234.881470,430.059204 
	C1255.556885,426.674469 1274.043945,418.047607 1291.128418,406.299652 
	C1309.548706,393.633148 1323.706787,377.045807 1334.784424,357.688934 
	C1344.060547,341.479736 1349.309937,323.909424 1352.968628,305.761566 
	C1353.470947,303.270782 1353.811157,300.747314 1354.613281,298.119476 
	C1355.000000,342.927002 1355.000000,387.853973 1355.000000,433.000000 
	C1310.312622,433.000000 1265.625000,433.000000 1220.468628,433.000000 
z"/>
<path fill="#FFFFFF" opacity="1.000000" stroke="none" 
	d="
M1.000001,298.468658 
	C1.999695,301.734070 3.259187,305.420349 3.956762,309.210022 
	C8.365023,333.158508 17.335245,355.078766 32.064953,374.619659 
	C51.071255,399.834015 75.677773,417.120392 105.796715,426.142303 
	C116.106232,429.230438 127.038681,430.238983 137.843262,432.598816 
	C92.406891,433.000000 46.813782,433.000000 1.000000,433.000000 
	C1.000000,388.312683 1.000000,343.625000 1.000001,298.468658 
z"/>
<path fill="#FFFFFF" opacity="1.000000" stroke="none" 
	d="
M1.000000,289.437439 
	C1.255485,291.244537 1.510972,293.489044 1.383229,295.866791 
	C1.000000,293.958282 1.000000,291.916595 1.000000,289.437439 
z"/>
<path fill="#FFFFFF" opacity="1.000000" stroke="none" 
	d="
M1355.000000,295.562561 
	C1354.744507,293.755463 1354.489014,291.510925 1354.616699,289.133179 
	C1355.000000,291.041718 1355.000000,293.083405 1355.000000,295.562561 
z"/>
<path fill="#FFFFFF" opacity="1.000000" stroke="none" 
	d="
M104.766197,342.267181 
	C90.319580,329.042694 82.133339,312.513184 79.263138,293.987457 
	C75.272346,268.228882 81.341209,244.527298 97.700554,223.694534 
	C106.165878,212.914368 116.633446,205.099426 129.352341,200.291580 
	C145.833649,194.061508 162.243729,194.501328 178.668228,200.909210 
	C188.192245,204.624924 196.577530,210.195862 203.550720,217.321289 
	C214.310562,228.316025 221.763840,241.589661 224.869522,256.778809 
	C226.590424,265.195374 228.269150,273.954041 227.775574,282.430939 
	C225.856705,315.386230 211.857605,341.606018 180.971283,355.784668 
	C156.327301,367.097687 132.482315,363.335602 110.688110,347.169769 
	C108.727509,345.715515 106.903450,344.077148 104.766197,342.267181 
z"/>
<path fill="#FFFFFF" opacity="1.000000" stroke="none" 
	d="
M1175.375122,355.767548 
	C1153.181396,342.935028 1140.702393,323.882172 1135.932251,299.277618 
	C1131.404785,275.925415 1134.051636,253.465698 1145.270142,232.639450 
	C1155.883301,212.936462 1171.954468,198.847916 1194.672852,195.169632 
	C1224.166504,190.394409 1246.672363,202.651337 1262.870239,226.834473 
	C1271.504395,239.725494 1275.560303,254.308258 1277.215332,269.906799 
	C1279.218140,288.785400 1275.984131,306.537781 1267.817627,323.200592 
	C1257.885010,343.467377 1241.425171,356.644989 1219.315186,361.755554 
	C1204.255737,365.236450 1189.643311,362.421021 1175.375122,355.767548 
z"/>
<path fill="#FFFFFF" opacity="1.000000" stroke="none" 
	d="
M441.680298,361.985535 
	C435.828094,362.332092 430.399384,363.116333 425.007904,362.913086 
	C410.507812,362.366455 397.787903,356.958496 386.449554,347.979187 
	C370.564117,335.398773 361.564819,318.342285 358.339417,299.092590 
	C353.777527,271.866333 357.438629,245.506165 374.262390,222.409012 
	C384.691284,208.091293 398.861267,198.675079 416.100433,195.208679 
	C435.541809,191.299454 453.449036,196.150131 469.034973,208.570450 
	C486.936798,222.836227 496.013947,241.899139 499.033783,264.272522 
	C501.848297,285.124847 499.972076,305.259735 489.947327,324.056549 
	C479.813721,343.057526 464.818604,356.221741 443.401581,361.226440 
	C442.941589,361.333893 442.546265,361.717896 441.680298,361.985535 
z"/>
<path fill="#FFFFFF" opacity="1.000000" stroke="none" 
	d="
M1003.000000,357.000000 
	C978.533813,357.000000 954.567627,357.000000 929.920105,357.000000 
	C930.677551,356.038879 931.065857,355.442017 931.553650,354.942261 
	C945.586365,340.566956 959.686096,326.256592 973.655273,311.819885 
	C989.898682,295.032776 1006.036316,278.143311 1022.206482,261.285400 
	C1037.339233,245.508942 1052.450073,229.711456 1067.585938,213.938034 
	C1068.682495,212.795273 1069.904419,211.772903 1072.032837,209.800461 
	C1051.790649,260.431274 1052.437134,309.087006 1076.718506,357.000000 
	C1052.136963,357.000000 1027.818481,357.000000 1003.000000,357.000000 
z"/>
</svg>