<svg width="288" height="39" viewBox="0 0 288 39" fill="none" xmlns="http://www.w3.org/2000/svg">
<g clip-path="url(#clip0_9494_9730)">
<path d="M148.276 10.7886H162.446V13.0262H150.663V17.8671H157.526V20.1047H150.663V28.2362H148.276V10.7886Z" fill="#A7A7A7"/>
<path d="M174.87 22.1671C174.87 25.7794 172.087 28.5289 168.475 28.5289C164.863 28.5289 162.081 25.7746 162.081 22.1671C162.081 18.5596 164.839 15.8052 168.475 15.8052C172.112 15.8052 174.87 18.5547 174.87 22.1671ZM172.561 22.1671C172.561 19.7588 170.911 17.8673 168.475 17.8673C166.039 17.8673 164.389 19.7832 164.389 22.1671C164.389 24.5509 166.039 26.4668 168.475 26.4668C170.911 26.4668 172.561 24.5753 172.561 22.1671Z" fill="#A7A7A7"/>
<path d="M178.194 23.0982V16.0977H180.434V22.6838C180.434 24.9214 181.689 26.418 183.881 26.418C186.072 26.418 187.327 24.9214 187.327 22.6838V16.0977H189.592V23.0982C189.592 26.2182 187.4 28.5045 183.91 28.5045C180.42 28.5045 178.204 26.2182 178.204 23.0982H178.194Z" fill="#A7A7A7"/>
<path d="M196.055 28.2311H193.814V16.0923H196.055V18.33C196.548 17.3452 197.924 15.8242 200.189 15.8242C203.264 15.8242 205.378 18.135 205.378 21.255V28.2311H203.113V21.6693C203.113 19.383 201.736 17.8863 199.642 17.8863C197.548 17.8863 196.05 19.461 196.05 21.6693V28.2311H196.055Z" fill="#A7A7A7"/>
<path d="M214.726 28.5287C211.48 28.5287 208.722 26.1692 208.722 22.1668C208.722 18.1645 211.475 15.805 214.726 15.805C217.454 15.805 218.86 17.4771 219.153 18.1157V10.7935H221.394V28.2411H219.153V26.1546C218.86 26.7445 217.479 28.5385 214.726 28.5385V28.5287ZM215.146 17.8671C212.661 17.8671 211.035 19.7098 211.035 22.1668C211.035 24.6238 212.661 26.4666 215.146 26.4666C217.63 26.4666 219.207 24.6238 219.207 22.1668C219.207 19.7098 217.581 17.8671 215.146 17.8671Z" fill="#A7A7A7"/>
<path d="M230.815 28.5289C227.617 28.5289 224.884 26.1694 224.884 22.1671C224.884 18.1647 227.612 15.8052 230.815 15.8052C233.47 15.8052 234.827 17.4773 235.12 18.1159V16.1026H237.361V28.2413H235.12V26.1548C234.827 26.7691 233.573 28.5387 230.815 28.5387V28.5289ZM231.234 17.8673C228.799 17.8673 227.198 19.7344 227.198 22.1671C227.198 24.5997 228.799 26.4668 231.234 26.4668C233.67 26.4668 235.169 24.5753 235.169 22.1671C235.169 19.7588 233.592 17.8673 231.234 17.8673Z" fill="#A7A7A7"/>
<path d="M250.892 28.2313H248.012C245.132 28.2313 243.755 26.8809 243.755 24.1753V18.1059H240.163V16.0926H243.755V10.7837H245.996V16.0926H250.892V18.1059H245.996V23.6586C245.996 25.4282 246.586 26.1643 248.505 26.1643H250.892V28.2264V28.2313Z" fill="#A7A7A7"/>
<path d="M254.162 10.7886H256.5V13.7623H254.162V10.7886ZM254.211 16.0974H256.451V28.2362H254.211V16.0974Z" fill="#A7A7A7"/>
<path d="M272.736 22.1671C272.736 25.7794 269.954 28.5289 266.341 28.5289C262.729 28.5289 259.947 25.7746 259.947 22.1671C259.947 18.5596 262.705 15.8052 266.341 15.8052C269.978 15.8052 272.736 18.5547 272.736 22.1671ZM270.422 22.1671C270.422 19.7588 268.772 17.8673 266.336 17.8673C263.901 17.8673 262.251 19.7832 262.251 22.1671C262.251 24.5509 263.901 26.4668 266.336 26.4668C268.772 26.4668 270.422 24.5753 270.422 22.1671Z" fill="#A7A7A7"/>
<path d="M278.442 28.2311H276.202V16.0923H278.442V18.33C278.935 17.3452 280.312 15.8242 282.577 15.8242C285.652 15.8242 287.766 18.135 287.766 21.255V28.2311H285.501V21.6693C285.501 19.383 284.124 17.8863 282.03 17.8863C279.936 17.8863 278.437 19.461 278.437 21.6693V28.2311H278.442Z" fill="#A7A7A7"/>
<path d="M64.8535 20.5434H54.1292V28.2313H51.7422V10.7886H54.1292V18.3302H64.8535V10.7886H67.2405V28.2313H64.8535V20.5434Z" fill="#A7A7A7"/>
<path d="M83.4758 22.4352H73.3665C73.4886 24.6972 75.114 26.4668 77.501 26.4668C79.888 26.4668 80.8984 25.1652 81.1181 24.7703H83.3342C83.1634 25.8038 81.5867 28.5289 77.5059 28.5289C73.7668 28.5289 71.1113 25.7258 71.1113 22.1671C71.1113 18.6083 73.718 15.8052 77.2862 15.8052C80.8545 15.8052 83.4856 18.4572 83.4856 22.4401L83.4758 22.4352ZM73.513 20.5681H80.9912C80.4494 18.7497 79.0972 17.7162 77.2765 17.7162C75.3337 17.7162 73.9816 18.8228 73.513 20.5681Z" fill="#A7A7A7"/>
<path d="M91.9401 28.5287C88.694 28.5287 85.936 26.1692 85.936 22.1668C85.936 18.1645 88.6891 15.805 91.9401 15.805C94.6688 15.805 96.0746 17.4771 96.3675 18.1157V10.7935H98.608V28.2362H96.3675V26.1497C96.0746 26.7396 94.6932 28.5336 91.9401 28.5336V28.5287ZM92.355 17.8671C89.8704 17.8671 88.2449 19.7098 88.2449 22.1668C88.2449 24.6238 89.8704 26.4666 92.355 26.4666C94.8396 26.4666 96.4163 24.6238 96.4163 22.1668C96.4163 19.7098 94.7908 17.8671 92.355 17.8671Z" fill="#A7A7A7"/>
<path d="M114.448 22.4352H104.339C104.461 24.6972 106.086 26.4668 108.473 26.4668C110.86 26.4668 111.871 25.1652 112.09 24.7703H114.306C114.136 25.8038 112.559 28.5289 108.478 28.5289C104.739 28.5289 102.083 25.7258 102.083 22.1671C102.083 18.6083 104.69 15.8052 108.258 15.8052C111.827 15.8052 114.458 18.4572 114.458 22.4401L114.448 22.4352ZM104.485 20.5681H111.963C111.422 18.7497 110.069 17.7162 108.249 17.7162C106.306 17.7162 104.954 18.8228 104.485 20.5681Z" fill="#A7A7A7"/>
<path d="M120.033 28.2314H117.792V16.0926H120.033V18.3302C120.379 17.4479 121.409 15.9951 124.265 15.9951H127.316V18.2327H124.216C121.092 18.2327 120.033 19.2175 120.033 21.3771V28.2314Z" fill="#A7A7A7"/>
<path d="M135.116 28.5289C131.919 28.5289 129.185 26.1694 129.185 22.1671C129.185 18.1647 131.914 15.8052 135.116 15.8052C137.771 15.8052 139.128 17.4773 139.421 18.1159V16.1026H141.662V28.2413H139.421V26.1548C139.128 26.7691 137.874 28.5387 135.116 28.5387V28.5289ZM135.536 17.8673C133.1 17.8673 131.499 19.7344 131.499 22.1671C131.499 24.5997 133.1 26.4668 135.536 26.4668C137.972 26.4668 139.47 24.5753 139.47 22.1671C139.47 19.7588 137.893 17.8673 135.536 17.8673Z" fill="#A7A7A7"/>
<path d="M25.1441 18.0327H13.8535V20.8407H25.1441V18.0327Z" fill="#A7A7A7"/>
<path d="M19.4962 0.263184C8.85485 0.263184 0.234375 8.87731 0.234375 19.4999C0.234375 30.1226 8.85973 38.7367 19.4962 38.7367C30.1327 38.7367 38.758 30.1226 38.758 19.4999C38.758 8.87731 30.1327 0.263184 19.4962 0.263184ZM27.7018 28.3237H25.1439V22.8832H13.8534V28.3237H11.2906V10.6762H13.8534V15.9899H25.1439V10.6762H27.7018V28.3237Z" fill="#A7A7A7"/>
</g>
<defs>
<clipPath id="clip0_9494_9730">
<rect width="288" height="39" fill="white"/>
</clipPath>
</defs>
</svg>
