<svg version="1.1" id="Layer_1" xmlns="http://www.w3.org/2000/svg" xmlns:xlink="http://www.w3.org/1999/xlink" x="0px" y="0px"
	 width="100%" viewBox="0 0 168 168" enable-background="new 0 0 168 168" xml:space="preserve">
<path fill="#000000" opacity="1.000000" stroke="none" 
	d="
M169.000000,29.000000 
	C169.000000,37.687565 169.000000,46.375126 168.748535,55.863083 
	C165.460373,52.675968 162.218887,49.003765 156.614059,49.002228 
	C148.789368,49.000080 140.912933,48.480946 133.164703,49.250694 
	C129.929596,49.572090 126.387650,52.081337 123.999504,54.569370 
	C118.793938,59.992661 121.495346,67.147697 121.053047,73.581047 
	C120.661224,79.280365 123.367142,83.582954 128.564529,85.767357 
	C137.563400,89.549477 146.720139,92.955986 155.730026,96.488426 
	C155.730026,100.299339 155.730026,103.899078 155.730026,107.682388 
	C148.397919,107.682388 141.339523,107.682388 133.992889,107.682388 
	C133.992889,106.047523 134.030273,104.729324 133.985840,103.413902 
	C133.855774,99.563919 130.876633,98.032059 128.018692,98.242699 
	C125.641327,98.417915 122.142754,100.088493 121.342239,102.012581 
	C118.149124,109.687592 123.403885,119.605621 131.609863,120.794014 
	C139.573349,121.947296 147.765656,122.047363 155.829468,121.776474 
	C160.413376,121.622498 164.688202,119.434723 167.110428,114.891380 
	C167.373169,114.398537 168.352859,114.287918 169.000000,114.000000 
	C169.000000,122.687569 169.000000,131.375137 168.694748,140.804840 
	C166.224182,140.889206 163.334152,139.059738 162.062271,139.846420 
	C160.121536,141.046844 159.148483,143.986633 158.075256,146.330200 
	C157.634384,147.292847 158.002945,148.625381 158.000427,149.789673 
	C157.985794,156.534531 156.568268,157.996140 149.955536,157.996933 
	C108.540192,158.001938 67.124855,157.999512 25.709511,157.999542 
	C12.984410,157.999542 13.129992,157.984589 11.846395,145.491211 
	C11.636853,143.451736 9.882242,140.992599 8.116103,139.893829 
	C6.929216,139.155441 4.466389,140.485428 2.568630,140.860733 
	C2.056596,140.961990 1.523452,140.956482 1.000000,141.000000 
	C1.000000,134.645599 1.000000,128.291199 1.369790,121.247452 
	C2.543856,120.736015 3.360914,120.869843 4.150400,121.098755 
	C10.921592,123.062126 13.978293,120.911385 13.997362,114.139870 
	C14.007676,110.477287 13.999249,106.814644 13.999255,103.152031 
	C13.999266,97.511047 13.999257,91.870064 13.999257,86.229073 
	C18.005806,92.336868 20.844244,98.596443 23.978424,104.704269 
	C26.240742,109.113037 29.908165,109.444023 32.887154,105.501404 
	C34.548214,103.303032 35.690243,100.685791 36.893677,98.174644 
	C38.671425,94.465088 40.295559,90.681915 41.985107,86.930099 
	C42.998203,88.792763 42.997623,90.272194 42.998295,91.751625 
	C43.001766,99.409805 42.840919,107.072868 43.067905,114.724426 
	C43.215935,119.714500 46.251865,122.369583 50.893841,121.957306 
	C55.317886,121.564377 57.023563,118.784203 57.015556,114.535538 
	C56.978230,94.724182 57.107719,74.911209 56.833557,55.103573 
	C56.805305,53.062332 54.642704,49.483330 53.207787,49.345119 
	C49.908421,49.027336 45.526062,46.960426 43.349445,52.138695 
	C40.305943,59.379318 36.990822,66.508324 33.676289,73.631287 
	C32.230377,76.738556 30.497688,79.712379 28.616011,83.275551 
	C23.768406,73.136627 19.268578,63.839092 14.874122,54.492020 
	C12.151652,48.701286 8.998491,47.410027 2.738629,49.733292 
	C2.200249,49.933102 1.581445,49.916222 1.000000,50.000000 
	C1.000000,43.312355 1.000000,36.624710 1.305162,29.194859 
	C3.775429,29.110723 6.665287,30.940611 7.936942,30.154110 
	C9.877828,28.953697 10.851251,26.014139 11.924746,23.670668 
	C12.365676,22.708097 11.997046,21.375460 11.999568,20.211164 
	C12.014185,13.465213 13.431190,12.003869 20.043776,12.003073 
	C61.459568,11.998083 102.875359,12.000507 144.291153,12.000486 
	C157.014664,12.000480 156.869095,12.015457 158.153625,24.509689 
	C158.363312,26.549126 160.118423,29.007940 161.884720,30.106707 
	C163.071304,30.844841 165.533859,29.514296 167.431351,29.138716 
	C167.943329,29.037374 168.476532,29.043308 169.000000,29.000000 
M86.004929,84.602402 
	C85.877357,95.215790 94.765793,90.733780 99.685715,92.374382 
	C99.685715,97.733101 99.685715,102.655037 99.685715,107.596443 
	C92.323891,107.596443 85.282310,107.596443 78.000519,107.596443 
	C78.000519,99.707451 78.000519,92.221222 78.000526,84.734993 
	C78.000526,77.296707 78.000519,69.858421 78.000519,62.373558 
	C85.685150,62.373558 92.737366,62.373558 100.010574,62.373558 
	C100.010574,64.073578 99.548782,65.660004 100.115494,66.668449 
	C101.035873,68.306229 102.503525,70.590546 103.965851,70.770767 
	C106.995735,71.144203 111.546112,72.529945 112.631805,68.283730 
	C114.761726,59.953426 110.888603,49.056652 100.101349,49.007004 
	C92.770554,48.973263 85.439293,48.966671 78.108597,49.009907 
	C70.536858,49.054558 65.031990,54.524361 65.012604,62.085358 
	C64.972443,77.746819 64.978661,93.408501 65.012192,109.069992 
	C65.024544,114.839012 69.690071,120.413147 75.470390,120.925331 
	C82.704483,121.566322 90.021782,122.266914 97.239334,121.846397 
	C106.524719,121.305405 113.294418,117.037086 113.027054,105.226097 
	C112.876266,98.565010 113.019539,91.897652 112.992958,85.233253 
	C112.972855,80.193993 110.962006,78.141441 105.802452,78.021179 
	C101.805923,77.928032 97.803230,78.085648 93.807411,77.978203 
	C89.620567,77.865623 86.786827,79.387962 86.004929,84.602402 
z"/>
<path fill="#6000C4" opacity="1.000000" stroke="none" 
	d="
M1.000000,50.468658 
	C1.581445,49.916222 2.200249,49.933102 2.738629,49.733292 
	C8.998491,47.410027 12.151652,48.701286 14.874122,54.492020 
	C19.268578,63.839092 23.768406,73.136627 28.616011,83.275551 
	C30.497688,79.712379 32.230377,76.738556 33.676289,73.631287 
	C36.990822,66.508324 40.305943,59.379318 43.349445,52.138695 
	C45.526062,46.960426 49.908421,49.027336 53.207787,49.345119 
	C54.642704,49.483330 56.805305,53.062332 56.833557,55.103573 
	C57.107719,74.911209 56.978230,94.724182 57.015556,114.535538 
	C57.023563,118.784203 55.317886,121.564377 50.893841,121.957306 
	C46.251865,122.369583 43.215935,119.714500 43.067905,114.724426 
	C42.840919,107.072868 43.001766,99.409805 42.998295,91.751625 
	C42.997623,90.272194 42.998203,88.792763 41.985107,86.930099 
	C40.295559,90.681915 38.671425,94.465088 36.893677,98.174644 
	C35.690243,100.685791 34.548214,103.303032 32.887154,105.501404 
	C29.908165,109.444023 26.240742,109.113037 23.978424,104.704269 
	C20.844244,98.596443 18.005806,92.336868 13.999257,86.229073 
	C13.999257,91.870064 13.999266,97.511047 13.999255,103.152031 
	C13.999249,106.814644 14.007676,110.477287 13.997362,114.139870 
	C13.978293,120.911385 10.921592,123.062126 4.150400,121.098755 
	C3.360914,120.869843 2.543856,120.736015 1.369790,120.779053 
	C1.000000,97.645775 1.000000,74.291542 1.000000,50.468658 
z"/>
<path fill="#6000C4" opacity="1.000000" stroke="none" 
	d="
M169.000000,113.531364 
	C168.352859,114.287918 167.373169,114.398537 167.110428,114.891380 
	C164.688202,119.434723 160.413376,121.622498 155.829468,121.776474 
	C147.765656,122.047363 139.573349,121.947296 131.609863,120.794014 
	C123.403885,119.605621 118.149124,109.687592 121.342239,102.012581 
	C122.142754,100.088493 125.641327,98.417915 128.018692,98.242699 
	C130.876633,98.032059 133.855774,99.563919 133.985840,103.413902 
	C134.030273,104.729324 133.992889,106.047523 133.992889,107.682388 
	C141.339523,107.682388 148.397919,107.682388 155.730026,107.682388 
	C155.730026,103.899078 155.730026,100.299339 155.730026,96.488426 
	C146.720139,92.955986 137.563400,89.549477 128.564529,85.767357 
	C123.367142,83.582954 120.661224,79.280365 121.053047,73.581047 
	C121.495346,67.147697 118.793938,59.992661 123.999504,54.569370 
	C126.387650,52.081337 129.929596,49.572090 133.164703,49.250694 
	C140.912933,48.480946 148.789368,49.000080 156.614059,49.002228 
	C162.218887,49.003765 165.460373,52.675968 168.748535,56.331738 
	C169.000000,60.356899 169.000000,64.713799 168.609558,69.358948 
	C160.452621,73.427429 156.996567,71.475311 155.451691,62.353111 
	C148.417419,62.353111 141.371872,62.353111 134.000107,62.353111 
	C134.000107,64.174789 134.216873,65.689217 133.961121,67.119133 
	C133.043045,72.252129 135.371292,74.237381 140.123367,76.175781 
	C149.955978,80.186539 161.370880,81.307381 168.699280,90.397934 
	C168.799515,90.265282 168.899750,90.132637 169.000000,90.000000 
	C169.000000,97.687576 169.000000,105.375153 169.000000,113.531364 
z"/>
<path fill="#6000C4" opacity="1.000000" stroke="none" 
	d="
M169.000000,28.531597 
	C168.476532,29.043308 167.943329,29.037374 167.431351,29.138716 
	C165.533859,29.514296 163.071304,30.844841 161.884720,30.106707 
	C160.118423,29.007940 158.363312,26.549126 158.153625,24.509689 
	C156.869095,12.015457 157.014664,12.000480 144.291153,12.000486 
	C102.875359,12.000507 61.459568,11.998083 20.043776,12.003073 
	C13.431190,12.003869 12.014185,13.465213 11.999568,20.211164 
	C11.997046,21.375460 12.365676,22.708097 11.924746,23.670668 
	C10.851251,26.014139 9.877828,28.953697 7.936942,30.154110 
	C6.665287,30.940611 3.775429,29.110723 1.305162,28.726326 
	C1.000000,22.645601 1.000000,16.291203 1.249137,9.799929 
	C3.998849,6.775368 6.499424,3.887684 9.000000,1.000000 
	C59.354229,1.000000 109.708458,1.000000 160.199677,1.248585 
	C163.224442,3.998112 166.112213,6.499055 169.000000,8.999999 
	C169.000000,15.354398 169.000000,21.708796 169.000000,28.531597 
z"/>
<path fill="#6000C4" opacity="1.000000" stroke="none" 
	d="
M1.000000,141.468399 
	C1.523452,140.956482 2.056596,140.961990 2.568630,140.860733 
	C4.466389,140.485428 6.929216,139.155441 8.116103,139.893829 
	C9.882242,140.992599 11.636853,143.451736 11.846395,145.491211 
	C13.129992,157.984589 12.984410,157.999542 25.709511,157.999542 
	C67.124855,157.999512 108.540192,158.001938 149.955536,157.996933 
	C156.568268,157.996140 157.985794,156.534531 158.000427,149.789673 
	C158.002945,148.625381 157.634384,147.292847 158.075256,146.330200 
	C159.148483,143.986633 160.121536,141.046844 162.062271,139.846420 
	C163.334152,139.059738 166.224182,140.889206 168.694748,141.273483 
	C169.000000,147.354401 169.000000,153.708786 168.750854,160.200073 
	C166.001144,163.224625 163.500565,166.112320 161.000000,169.000000 
	C110.645775,169.000000 60.291542,169.000000 9.800430,168.751526 
	C6.775697,166.002045 3.887849,163.501022 1.000000,161.000000 
	C1.000000,154.645599 1.000000,148.291214 1.000000,141.468399 
z"/>
<path fill="#000000" opacity="1.000000" stroke="none" 
	d="
M169.000000,89.531593 
	C168.899750,90.132637 168.799515,90.265282 168.699280,90.397934 
	C161.370880,81.307381 149.955978,80.186539 140.123367,76.175781 
	C135.371292,74.237381 133.043045,72.252129 133.961121,67.119133 
	C134.216873,65.689217 134.000107,64.174789 134.000107,62.353111 
	C141.371872,62.353111 148.417419,62.353111 155.451691,62.353111 
	C156.996567,71.475311 160.452621,73.427429 168.609558,69.823593 
	C169.000000,76.354401 169.000000,82.708794 169.000000,89.531593 
z"/>
<path fill="#000000" opacity="1.000000" stroke="none" 
	d="
M8.505266,1.000000 
	C6.499424,3.887684 3.998849,6.775368 1.249137,9.331526 
	C1.000000,6.417543 1.000000,3.835086 1.000000,1.000000 
	C3.333921,1.000000 5.672227,1.000000 8.505266,1.000000 
z"/>
<path fill="#000000" opacity="1.000000" stroke="none" 
	d="
M169.000000,8.505266 
	C166.112213,6.499055 163.224442,3.998112 160.668335,1.248585 
	C163.582458,1.000000 166.164917,1.000000 169.000000,1.000000 
	C169.000000,3.333921 169.000000,5.672227 169.000000,8.505266 
z"/>
<path fill="#000000" opacity="1.000000" stroke="none" 
	d="
M1.000000,161.494736 
	C3.887849,163.501022 6.775697,166.002045 9.331773,168.751526 
	C6.417543,169.000000 3.835087,169.000000 1.000000,169.000000 
	C1.000000,166.666077 1.000000,164.327774 1.000000,161.494736 
z"/>
<path fill="#000000" opacity="1.000000" stroke="none" 
	d="
M161.494736,169.000000 
	C163.500565,166.112320 166.001144,163.224625 168.750854,160.668472 
	C169.000000,163.582458 169.000000,166.164917 169.000000,169.000000 
	C166.666077,169.000000 164.327774,169.000000 161.494736,169.000000 
z"/>
<path fill="#6000C4" opacity="1.000000" stroke="none" 
	d="
M86.011139,84.189789 
	C86.786827,79.387962 89.620567,77.865623 93.807411,77.978203 
	C97.803230,78.085648 101.805923,77.928032 105.802452,78.021179 
	C110.962006,78.141441 112.972855,80.193993 112.992958,85.233253 
	C113.019539,91.897652 112.876266,98.565010 113.027054,105.226097 
	C113.294418,117.037086 106.524719,121.305405 97.239334,121.846397 
	C90.021782,122.266914 82.704483,121.566322 75.470390,120.925331 
	C69.690071,120.413147 65.024544,114.839012 65.012192,109.069992 
	C64.978661,93.408501 64.972443,77.746819 65.012604,62.085358 
	C65.031990,54.524361 70.536858,49.054558 78.108597,49.009907 
	C85.439293,48.966671 92.770554,48.973263 100.101349,49.007004 
	C110.888603,49.056652 114.761726,59.953426 112.631805,68.283730 
	C111.546112,72.529945 106.995735,71.144203 103.965851,70.770767 
	C102.503525,70.590546 101.035873,68.306229 100.115494,66.668449 
	C99.548782,65.660004 100.010574,64.073578 100.010574,62.373558 
	C92.737366,62.373558 85.685150,62.373558 78.000519,62.373558 
	C78.000519,69.858421 78.000526,77.296707 78.000526,84.734993 
	C78.000519,92.221222 78.000519,99.707451 78.000519,107.596443 
	C85.282310,107.596443 92.323891,107.596443 99.685715,107.596443 
	C99.685715,102.655037 99.685715,97.733101 99.685715,92.374382 
	C94.765793,90.733780 85.877357,95.215790 86.011139,84.189789 
z"/>
</svg>