<svg version="1.1" id="Layer_1" xmlns="http://www.w3.org/2000/svg" xmlns:xlink="http://www.w3.org/1999/xlink" x="0px" y="0px"
	 width="100%" viewBox="0.999997 1 200 200" enable-background="new 0 0 200 200" xml:space="preserve">
<path fill="#21211F" opacity="1.000000" stroke="none" 
	d="
M1.000000,102.000000 
	C1.000000,101.555557 1.000000,101.111107 1.329739,100.286316 
	C2.267981,99.270721 2.876484,98.635475 3.484987,98.000237 
	C2.656659,97.666824 1.828330,97.333412 1.000000,97.000000 
	C1.000000,93.969406 1.000000,90.938812 1.275605,87.405609 
	C1.832238,86.239693 2.113266,85.576370 2.717217,84.908760 
	C3.495498,84.581993 3.950856,84.259521 4.406215,83.937050 
	C3.923826,83.624451 3.441437,83.311852 2.905264,82.662170 
	C2.946617,81.883133 3.041753,81.441177 3.544418,81.017639 
	C4.594905,81.171844 5.240796,81.295151 5.880386,81.445297 
	C15.280437,83.652077 17.999638,81.552467 18.000660,72.082085 
	C18.001575,63.596275 18.001577,63.596275 7.966612,64.623718 
	C12.648243,56.179703 17.328917,48.102657 22.179199,40.212738 
	C22.763197,40.318600 23.177588,40.237331 23.591978,40.156063 
	C23.355103,39.756039 23.118227,39.356014 22.966351,38.625469 
	C31.300880,31.016111 39.550415,23.737276 47.932922,16.708353 
	C48.449512,17.103342 48.833134,17.248419 49.216751,17.393494 
	C49.099010,16.909922 48.981266,16.426348 49.046730,15.647708 
	C53.797707,13.169790 58.365482,10.986940 63.000244,9.192566 
	C63.698524,11.083171 64.861008,12.587537 64.854691,14.086983 
	C64.839821,17.618393 66.688698,18.246695 69.579948,18.017368 
	C70.892754,17.913239 72.220734,18.004501 73.541809,17.999907 
	C80.914841,17.974264 82.664001,16.065741 82.152977,7.999878 
	C80.258942,7.999878 78.277443,8.230546 76.375313,7.940576 
	C74.078453,7.590432 71.848869,6.798931 69.902023,6.034731 
	C75.809242,4.247337 81.404625,2.623669 87.000000,1.000000 
	C90.030594,1.000000 93.061188,1.000000 96.333801,1.234292 
	C95.865784,1.965057 95.155739,2.461530 94.445686,2.958003 
	C94.897850,3.370487 95.350014,3.782972 95.802177,4.195457 
	C96.534790,3.130304 97.267395,2.065152 98.000000,1.000000 
	C99.714355,1.000000 101.428719,1.000000 103.589096,1.371314 
	C104.732803,2.448320 105.430481,3.154011 106.128151,3.859703 
	C106.752098,2.906469 107.376053,1.953234 108.000000,1.000000 
	C109.388893,1.000000 110.777779,1.000000 112.660355,1.297153 
	C119.554695,3.127249 125.955353,4.660192 132.244263,6.586979 
	C131.499008,7.689991 130.584152,8.298827 130.288330,9.128408 
	C129.588837,11.090006 128.309219,13.493553 128.920654,15.079967 
	C129.464447,16.490915 132.319473,17.877766 133.997375,17.709499 
	C135.329163,17.575945 136.820007,15.239010 137.508896,13.577212 
	C138.164398,11.995988 137.872101,10.021865 138.344299,8.248992 
	C142.222046,10.091555 145.752029,11.905615 148.922058,13.795312 
	C146.588501,14.907787 144.614853,15.944627 142.641144,16.981335 
	C147.236954,18.700960 147.901764,18.374269 149.623749,13.791237 
	C171.397552,26.112047 186.643143,43.584023 194.515167,67.101311 
	C193.472122,71.676140 190.645752,76.013176 192.731766,80.674911 
	C193.277161,80.850929 193.822556,81.026947 194.367966,81.202972 
	C195.324631,79.103554 196.281296,77.004135 197.498672,75.184433 
	C198.186569,77.975883 198.613739,80.487602 198.738007,83.062454 
	C198.825333,83.721596 199.215546,84.317612 199.739944,85.192375 
	C200.249420,86.314079 200.624710,87.157043 201.000000,88.000000 
	C201.000000,96.687561 201.000000,105.375130 200.724350,114.578278 
	C200.166611,115.756950 199.884506,116.420044 199.227219,117.099518 
	C196.803848,118.186569 194.755661,119.257248 191.699539,120.854820 
	C192.402115,125.688812 193.225235,131.352249 194.040588,137.384476 
	C191.787247,142.209595 189.541702,146.665924 187.015259,150.905624 
	C186.570953,150.072113 186.501770,149.409073 186.226349,148.847107 
	C185.430923,147.224152 184.843262,144.580658 183.649078,144.253403 
	C180.701050,143.445541 177.096085,143.942993 176.544846,147.657440 
	C176.292099,149.360535 178.121628,151.953262 179.738022,153.176086 
	C181.122131,154.223206 183.549011,153.891907 185.398834,154.509232 
	C177.592255,166.667679 168.235687,176.827789 156.005371,183.820251 
	C155.002228,181.945099 154.286591,180.197968 153.047562,178.985870 
	C151.788925,177.754562 149.783875,176.065033 148.522034,176.359604 
	C146.851028,176.749695 145.242004,178.666977 144.253983,180.315964 
	C143.483887,181.601257 143.702408,183.478882 143.414764,185.581757 
	C145.355408,186.422058 147.390823,187.303391 149.214203,188.475464 
	C140.240402,192.085449 131.516357,195.509995 122.696594,198.667160 
	C119.584785,199.781082 116.238968,200.241302 113.000000,201.000000 
	C111.611107,201.000000 110.222221,201.000000 108.399109,200.628693 
	C107.267166,199.551682 106.569443,198.845978 105.871719,198.140274 
	C105.247810,199.093521 104.623901,200.046753 104.000000,201.000000 
	C102.285645,201.000000 100.571281,201.000000 98.412689,200.639999 
	C97.092918,199.490585 96.217384,198.701187 95.341850,197.911789 
	C95.061981,198.289429 94.782104,198.667084 94.502228,199.044724 
	C95.334816,199.696487 96.167404,200.348251 97.000000,201.000000 
	C92.643097,201.000000 88.286201,201.000000 83.370636,200.616364 
	C81.783127,199.790817 80.792847,199.185043 79.719452,198.932327 
	C68.718643,196.342316 58.275730,192.437012 49.130936,185.799561 
	C49.550415,183.918900 49.698620,182.296753 49.846828,180.674591 
	C49.374989,180.506088 48.903152,180.337585 48.431316,180.169083 
	C47.600723,181.508041 46.770130,182.846985 45.598709,184.110199 
	C37.799774,177.036453 30.341665,170.038467 23.173401,162.986298 
	C23.759691,162.506165 24.056133,162.080215 24.352577,161.654266 
	C23.572077,161.759247 22.791578,161.864212 21.714291,161.812729 
	C16.933475,153.441086 12.449447,145.225922 8.333858,137.016907 
	C10.316052,137.137894 11.930511,137.357925 13.543429,137.347153 
	C17.768702,137.318970 19.334190,134.535721 17.310244,130.768631 
	C15.464476,127.333176 9.167941,126.585175 5.094783,129.078857 
	C4.729508,127.881927 4.508314,126.940750 4.633094,125.979507 
	C6.379341,124.841270 7.779613,123.723106 9.179885,122.604942 
	C8.918817,122.230392 8.657747,121.855843 8.396679,121.481285 
	C6.698556,121.715385 5.000433,121.949478 3.169522,121.885994 
	C3.010646,120.725838 2.984559,119.863266 3.261431,118.937569 
	C3.174141,118.278564 2.783892,117.682678 2.262742,116.839569 
	C1.754559,116.061569 1.377277,115.530785 0.999997,115.000000 
	C1.000000,111.969406 1.000000,108.938812 1.333889,105.444336 
	C2.284754,104.595337 2.901731,104.210213 3.518708,103.825089 
	C2.679138,103.216728 1.839569,102.608360 1.000000,102.000000 
M104.858398,47.342640 
	C103.914673,47.106110 102.661194,46.360939 102.077850,46.716187 
	C98.484009,48.904758 98.181999,46.604183 98.636543,43.714001 
	C104.757957,44.507366 110.879379,45.300732 117.105011,46.649414 
	C117.759483,46.705112 118.413948,46.760811 119.814499,46.831688 
	C123.634979,48.631615 127.455460,50.431538 131.111282,52.933258 
	C129.929398,53.673927 128.747513,54.414597 126.427269,55.868656 
	C128.728348,56.618450 130.306702,57.132751 131.885071,57.647057 
	C131.856934,55.890362 131.828812,54.133667 132.545853,52.474468 
	C136.204025,52.742542 138.737503,51.129684 139.628784,47.613861 
	C140.573288,43.888172 138.232376,41.783077 135.288651,40.101227 
	C124.349945,33.851574 112.425362,31.424105 99.995811,30.191439 
	C99.579178,29.300524 99.162552,28.409609 98.745926,27.518700 
	C98.164055,28.669424 97.582184,29.820150 96.352524,31.200562 
	C95.902039,31.154938 95.451561,31.109314 94.892441,30.472126 
	C94.262848,30.755880 93.633255,31.039635 92.350075,31.700945 
	C90.596992,31.893248 88.843910,32.085552 87.044495,31.481094 
	C85.885323,29.702242 84.726151,27.923389 83.566978,26.144537 
	C83.039742,26.475201 82.512505,26.805866 81.985268,27.136530 
	C82.990318,29.027016 83.995369,30.917503 84.297218,33.102921 
	C80.200317,34.409042 76.103424,35.715164 71.984001,36.337620 
	C71.312111,35.792362 70.640228,35.247105 69.968338,34.701843 
	C68.799408,36.431393 67.630478,38.160938 66.023949,40.357498 
	C52.313614,48.262199 43.174404,60.212490 35.451649,74.050148 
	C34.476627,74.679482 33.501602,75.308807 32.526577,75.938133 
	C33.344868,76.291916 34.163158,76.645699 35.004425,77.725792 
	C34.357712,79.492233 33.710999,81.258675 32.474064,82.565948 
	C29.649351,79.966743 27.117720,80.734497 24.578447,81.979019 
	C27.594114,83.994469 29.844858,85.498703 32.169350,87.870552 
	C32.389004,97.532516 32.608654,107.194489 32.123638,116.946922 
	C28.911757,119.903946 31.889437,120.234375 34.193054,121.661545 
	C36.629986,126.900185 38.892239,132.232590 41.620243,137.315002 
	C42.350086,138.674728 44.964939,140.388779 45.910164,139.997482 
	C48.261906,139.023865 50.862991,137.304337 51.984108,135.162155 
	C52.782574,133.636475 51.539524,130.872498 50.858242,128.774567 
	C48.932800,122.845482 46.827499,116.974785 45.329075,110.666451 
	C45.946594,108.858650 46.143280,105.857674 47.259548,105.463974 
	C50.785477,104.220367 50.643257,101.415520 49.617584,99.530815 
	C48.838470,98.099167 45.974232,97.802277 43.929806,96.270569 
	C44.161167,94.842598 44.392525,93.414619 45.342072,91.943985 
	C46.749771,91.726364 48.157471,91.508751 49.520977,91.297966 
	C50.186012,86.135002 50.186012,86.135002 46.107006,84.268112 
	C49.654232,77.811066 53.201458,71.354019 57.413982,65.180672 
	C58.689156,65.413704 59.964329,65.646736 61.239498,65.879768 
	C61.344860,65.512428 61.450218,65.145088 61.555576,64.777756 
	C60.458416,64.210724 59.361259,63.643688 58.379852,62.425903 
	C66.979790,53.804199 76.692078,47.144218 89.024231,45.749557 
	C89.747215,46.285877 90.747711,47.444317 91.151169,47.264339 
	C96.416336,44.915634 97.919838,49.115395 99.912483,52.864601 
	C94.940765,60.240742 89.969048,67.616882 84.644958,74.612617 
	C84.271347,74.665565 83.897736,74.718513 83.524124,74.771461 
	C83.783768,75.223503 84.043411,75.675545 84.120743,76.814598 
	C80.536148,83.252960 76.951561,89.691315 72.525688,96.069412 
	C70.163315,96.746887 67.652725,97.146400 65.532005,98.277107 
	C64.923279,98.601662 65.148933,102.230064 65.488976,102.313301 
	C67.715317,102.858238 70.078064,102.845924 72.638290,103.842911 
	C72.721359,105.562309 72.804428,107.281708 72.100235,108.999886 
	C69.941315,108.575340 67.782394,108.150803 65.231651,107.649216 
	C65.269287,111.023071 64.184914,114.880196 70.095093,112.544434 
	C71.146126,112.129051 72.634209,112.819557 74.299843,113.589401 
	C77.635712,118.014351 80.971581,122.439293 83.781906,127.252632 
	C83.754372,127.915924 83.726845,128.579208 83.699318,129.242508 
	C84.196915,128.645264 84.694511,128.048035 85.872818,127.705681 
	C93.404221,130.282288 100.467842,133.197403 97.308525,143.509659 
	C97.259880,143.668472 97.207916,143.826263 96.330215,143.994095 
	C92.840660,143.996063 89.338448,143.824326 85.867203,144.077438 
	C84.267700,144.194061 81.370300,145.204468 81.393188,145.702438 
	C81.503365,148.099747 82.296989,150.498245 83.080383,152.817841 
	C83.454277,153.924927 84.344734,154.857529 84.259949,155.902145 
	C80.617439,154.340973 76.902130,152.927536 73.352348,151.178207 
	C69.596519,149.327347 66.533066,149.939758 64.292412,153.368073 
	C62.234650,156.516556 63.514576,160.346405 67.760323,162.262909 
	C73.763596,164.972748 80.040146,167.077209 85.816910,170.103226 
	C84.308144,171.054886 82.799370,172.006561 80.627708,173.376343 
	C81.934662,175.051926 83.112442,176.561905 84.784225,178.705215 
	C85.698822,175.023392 86.349930,172.402283 87.817375,169.723709 
	C89.892326,170.114212 91.967278,170.504715 93.610664,171.395920 
	C92.418770,171.671021 91.226868,171.946136 89.847748,172.264450 
	C90.070061,174.282776 90.257065,175.980484 90.479576,178.000610 
	C97.852730,178.000610 104.595688,178.066101 111.336464,177.973358 
	C114.778397,177.926025 118.289589,177.068436 121.636604,177.533447 
	C125.319870,178.045197 128.269958,178.181198 129.752304,174.120010 
	C131.407150,169.586212 128.518280,168.041687 125.463783,166.438629 
	C143.514267,159.586792 156.183701,146.928650 165.572037,129.990433 
	C169.750854,132.349533 173.960678,130.937912 176.543976,128.078262 
	C181.201691,122.922249 173.017746,120.141579 174.140732,114.963219 
	C171.821915,115.911354 170.489151,116.456306 169.095047,116.234772 
	C169.596588,113.777122 170.098129,111.319473 171.265930,108.997688 
	C171.937119,110.260681 172.608322,111.523674 173.279068,112.785812 
	C177.683441,110.467865 179.258194,101.918831 176.380722,99.063248 
	C174.561264,100.566261 172.812225,102.011108 170.884354,102.629951 
	C170.904602,100.086876 170.924866,97.543800 171.753571,94.997093 
	C178.906036,93.900543 180.532639,88.346825 176.372955,82.597092 
	C173.023193,81.943336 170.607269,81.471825 167.855667,80.349037 
	C166.879135,77.575150 165.902603,74.801270 165.344116,71.662033 
	C164.877121,71.107750 164.410141,70.553467 163.407150,69.562019 
	C163.077850,68.987579 162.723511,68.425896 162.423325,67.836624 
	C160.502258,64.065742 157.593689,62.126411 153.560165,64.240639 
	C149.542084,66.346779 149.510345,69.820732 151.399811,73.595055 
	C152.580322,75.953201 153.552551,78.415619 153.708755,80.908272 
	C152.880890,80.934853 152.050278,81.018753 151.225601,80.979042 
	C144.008575,80.631538 144.004654,80.624977 144.000488,88.117668 
	C143.995712,96.733711 144.238358,105.359154 143.900238,113.961906 
	C143.726807,118.374596 145.346588,121.370766 148.639633,123.982567 
	C149.203644,122.850800 149.645981,121.963188 150.088318,121.075584 
	C150.489212,121.917564 150.907700,122.751740 151.285980,123.603760 
	C151.655548,124.436180 151.984085,125.286827 152.199326,126.817848 
	C150.920288,128.926407 149.641266,131.034958 147.720566,132.833313 
	C146.774063,132.053650 145.827560,131.273987 144.881073,130.494324 
	C144.497086,130.669724 144.113113,130.845139 143.729126,131.020554 
	C144.274124,133.065170 144.819122,135.109787 145.134003,137.806290 
	C138.645447,145.538635 130.615570,151.060638 121.082809,153.613525 
	C121.250061,151.657959 121.794052,149.634567 121.458344,147.769531 
	C121.215462,146.420242 119.793793,144.223267 118.916908,144.232422 
	C115.230721,144.270966 114.329971,142.254211 113.427094,139.234985 
	C112.794106,137.118301 110.887222,135.382568 109.549248,133.476700 
	C109.149757,133.667725 108.750275,133.858749 108.350792,134.049774 
	C108.567039,133.099594 108.783287,132.149414 109.656288,130.887375 
	C113.901703,128.099579 118.928238,126.024582 122.245293,122.389626 
	C131.989258,111.711830 131.560577,99.570976 126.281097,87.071358 
	C127.007019,86.615685 127.732948,86.160011 128.458862,85.704330 
	C126.956131,85.141869 125.453400,84.579399 123.406944,83.606560 
	C117.489525,74.780304 111.572098,65.954048 106.339546,56.984005 
	C108.499680,56.569740 110.659821,56.155479 113.146408,55.678608 
	C114.963104,50.696892 112.953438,48.608143 104.858398,47.342640 
M116.514076,192.002335 
	C114.501213,192.478546 112.488350,192.954758 110.475487,193.430954 
	C110.579124,193.870346 110.682755,194.309753 110.786392,194.749146 
	C113.950058,194.383728 117.113724,194.018295 120.277390,193.652863 
	C120.282036,193.294022 120.286674,192.935165 120.291321,192.576309 
	C119.292404,192.384872 118.293495,192.193420 116.514076,192.002335 
M49.330109,114.205437 
	C49.518147,112.089760 49.706184,109.974083 49.894222,107.858406 
	C49.254425,107.858498 48.614632,107.858589 47.974838,107.858688 
	C48.188805,109.967339 48.402771,112.075989 49.330109,114.205437 
M72.764732,145.539658 
	C72.983017,148.722565 72.983017,148.722565 77.514832,147.936020 
	C75.663658,146.801498 74.536072,146.110443 72.764732,145.539658 
M59.893677,145.681839 
	C58.962528,146.710800 58.031376,147.739746 57.100227,148.768692 
	C57.674496,149.118927 58.248764,149.469162 58.823032,149.819397 
	C59.333214,148.588882 59.843395,147.358383 59.893677,145.681839 
M44.054157,176.061188 
	C42.928528,176.225555 41.802898,176.389908 40.677269,176.554276 
	C40.927505,177.097961 41.177738,177.641663 41.427975,178.185349 
	C42.528980,177.530441 43.629986,176.875534 44.054157,176.061188 
M157.969193,176.066467 
	C157.577713,176.461731 157.186218,176.856995 156.794724,177.252258 
	C158.268906,177.407043 159.743073,177.561844 161.217255,177.716629 
	C161.242676,177.316467 161.268082,176.916306 161.293503,176.516144 
	C160.414581,176.351013 159.535675,176.185867 157.969193,176.066467 
M194.656815,93.843010 
	C195.471252,93.917679 196.285690,93.992355 197.100128,94.067024 
	C197.091263,93.517624 197.082397,92.968224 197.073547,92.418816 
	C196.197037,92.701508 195.320541,92.984192 194.656815,93.843010 
M194.592911,109.318298 
	C195.533142,109.243958 196.473373,109.169617 197.413605,109.095268 
	C197.279602,108.672562 197.145599,108.249855 197.011597,107.827156 
	C196.159485,108.118851 195.307373,108.410545 194.592911,109.318298 
M60.583019,158.657013 
	C60.056854,157.939255 59.530689,157.221512 59.004520,156.503754 
	C58.651798,156.997681 58.299080,157.491608 57.946358,157.985535 
	C58.780750,158.410217 59.615147,158.834915 60.583019,158.657013 
M74.427467,85.084824 
	C75.347229,84.886299 76.266983,84.687775 77.186745,84.489243 
	C76.849007,83.845345 76.511269,83.201447 76.173531,82.557556 
	C75.579002,83.211121 74.984482,83.864693 74.427467,85.084824 
M148.330490,61.992462 
	C149.043762,61.823822 149.757050,61.655186 150.470322,61.486553 
	C150.296982,61.099884 150.123657,60.713215 149.950333,60.326538 
	C149.376266,60.682148 148.802200,61.037758 148.330490,61.992462 
M124.330170,73.992516 
	C124.977875,73.965424 125.625572,73.938332 126.273277,73.911232 
	C126.165596,73.382996 126.057915,72.854767 125.950241,72.326530 
	C125.376076,72.682137 124.801910,73.037743 124.330170,73.992516 
M37.276501,170.875900 
	C37.807182,170.537262 38.337864,170.198624 38.868546,169.859985 
	C38.503986,169.465317 38.139427,169.070648 37.774868,168.675980 
	C37.553860,169.211777 37.332855,169.747574 37.276501,170.875900 
M115.588593,27.716364 
	C115.992424,28.050636 116.382111,28.407164 116.821037,28.686247 
	C116.867126,28.715555 117.203682,28.288052 117.405472,28.072487 
	C116.929451,27.825201 116.453430,27.577915 115.588593,27.716364 
M41.507622,24.208782 
	C41.203140,24.509182 40.898659,24.809584 40.594177,25.109987 
	C40.970638,25.319818 41.347103,25.529650 41.723564,25.739479 
	C41.829948,25.270042 41.936333,24.800604 41.507622,24.208782 
M171.054779,167.342514 
	C170.569229,167.576721 170.083664,167.810913 169.598099,168.045105 
	C169.792511,168.267715 170.115753,168.706604 170.161346,168.679428 
	C170.611328,168.411362 171.015244,168.065948 171.054779,167.342514 
M59.167549,153.520706 
	C59.102734,153.183304 59.037918,152.845886 58.973103,152.508484 
	C58.897053,152.843735 58.820999,153.178970 59.167549,153.520706 
M177.520493,156.832581 
	C177.183105,156.897369 176.845703,156.962173 176.508316,157.026978 
	C176.843552,157.103027 177.178772,157.179092 177.520493,156.832581 
M87.479416,5.167633 
	C87.816788,5.102814 88.154152,5.037994 88.491524,4.973175 
	C88.156311,4.897129 87.821098,4.821084 87.479416,5.167633 
M192.479370,113.167549 
	C192.816803,113.102722 193.154221,113.037888 193.491653,112.973053 
	C193.156387,112.897011 192.821106,112.820969 192.479370,113.167549 
M4.479500,93.167480 
	C4.816857,93.102661 5.154215,93.037842 5.491571,92.973030 
	C5.156374,92.896996 4.821176,92.820961 4.479500,93.167480 
M25.479380,106.167526 
	C25.816782,106.102715 26.154184,106.037895 26.491587,105.973083 
	C26.156351,105.897034 25.821114,105.820984 25.479380,106.167526 
M55.167229,73.520630 
	C55.102394,73.183220 55.037563,72.845802 54.972733,72.508392 
	C54.896671,72.843620 54.820610,73.178848 55.167229,73.520630 
M16.520428,54.832611 
	C16.183064,54.897430 15.845701,54.962250 15.508337,55.027065 
	C15.843520,55.103081 16.178703,55.179096 16.520428,54.832611 
M193.832474,100.479385 
	C193.897293,100.816788 193.962097,101.154182 194.026917,101.491577 
	C194.102982,101.156349 194.179031,100.821114 193.832474,100.479385 
M164.518692,31.742844 
	C164.801086,31.939938 165.083496,32.137032 165.365875,32.334129 
	C165.184540,32.041214 165.003204,31.748301 164.518692,31.742844 
M156.481537,25.257120 
	C156.199036,25.059935 155.916534,24.862749 155.634033,24.665567 
	C155.815430,24.958586 155.996841,25.251604 156.481537,25.257120 
M75.520935,123.832535 
	C75.183510,123.897346 74.846085,123.962166 74.508659,124.026978 
	C74.843918,124.103027 75.179176,124.179070 75.520935,123.832535 
M125.481201,126.256638 
	C125.198357,126.059143 124.915512,125.861656 124.632668,125.664169 
	C124.814323,125.957504 124.995979,126.250832 125.481201,126.256638 
M64.479370,62.167603 
	C64.816780,62.102768 65.154198,62.037933 65.491608,61.973091 
	C65.156387,61.897068 64.821175,61.821045 64.479370,62.167603 
M35.167412,133.520645 
	C35.102619,133.183304 35.037827,132.845978 34.973042,132.508636 
	C34.896984,132.843826 34.820930,133.179031 35.167412,133.520645 
M63.742783,149.481720 
	C63.939945,149.199188 64.137108,148.916672 64.334267,148.634140 
	C64.041283,148.815536 63.748299,148.996933 63.742783,149.481720 
M136.742859,141.481720 
	C136.940018,141.199158 137.137161,140.916595 137.334305,140.634018 
	C137.041321,140.815460 136.748352,140.996887 136.742859,141.481720 
M127.481354,80.257149 
	C127.198898,80.059990 126.916451,79.862839 126.634003,79.665672 
	C126.815369,79.958649 126.996727,80.251625 127.481354,80.257149 
M68.518661,145.743027 
	C68.801033,145.940109 69.083405,146.137192 69.365784,146.334274 
	C69.184471,146.041397 69.003151,145.748535 68.518661,145.743027 
M146.832474,75.479439 
	C146.897324,75.816727 146.962173,76.154015 147.027023,76.491302 
	C147.102997,76.156219 147.178970,75.821144 146.832474,75.479439 
M15.518363,146.742722 
	C15.800836,146.939835 16.083307,147.136932 16.365776,147.334045 
	C16.184410,147.041153 16.003042,146.748276 15.518363,146.742722 
z"/>
<path fill="#FCFCFC" opacity="1.000000" stroke="none" 
	d="
M199.040924,82.999321 
	C198.613739,80.487602 198.186569,77.975883 197.494781,74.798759 
	C196.435776,71.756676 195.641373,69.380005 194.846970,67.003326 
	C186.643143,43.584023 171.397552,26.112047 149.484436,13.931130 
	C149.002228,13.998195 149.281998,13.719673 149.281998,13.719675 
	C145.752029,11.905615 142.222046,10.091555 138.018433,8.058339 
	C135.681870,7.290501 134.018951,6.741819 132.356018,6.193136 
	C125.955353,4.660192 119.554695,3.127249 113.077011,1.297153 
	C142.259827,1.000000 171.519638,1.000000 201.000000,1.000000 
	C201.000000,29.687183 201.000000,58.374935 201.000000,87.531342 
	C200.624710,87.157043 200.249420,86.314079 199.761902,84.847565 
	C199.446762,83.815773 199.243835,83.407547 199.040924,82.999321 
z"/>
<path fill="#FCFCFC" opacity="1.000000" stroke="none" 
	d="
M2.394293,84.913055 
	C2.113266,85.576370 1.832238,86.239693 1.275605,86.951508 
	C1.000000,58.406425 1.000000,29.812853 1.000000,1.000000 
	C29.353851,1.000000 57.708267,1.000000 86.531342,1.000000 
	C81.404625,2.623669 75.809242,4.247337 69.536049,6.047390 
	C66.883240,7.083879 64.908249,7.943983 62.933254,8.804089 
	C58.365482,10.986940 53.797707,13.169790 48.832565,15.645143 
	C48.120594,15.985787 47.908844,16.159386 47.799946,16.458441 
	C39.550415,23.737276 31.300880,31.016111 22.727402,38.712231 
	C22.272167,39.428211 22.140881,39.726910 22.009594,40.025608 
	C17.328917,48.102657 12.648243,56.179703 7.693686,64.864197 
	C5.992167,70.647507 4.564528,75.823372 3.136889,80.999229 
	C3.041753,81.441177 2.946617,81.883133 2.708506,82.946083 
	C2.508451,84.015739 2.451373,84.464401 2.394293,84.913055 
z"/>
<path fill="#FCFCFC" opacity="1.000000" stroke="none" 
	d="
M199.602417,117.083145 
	C199.884506,116.420044 200.166611,115.756950 200.724350,115.046928 
	C201.000000,143.594406 201.000000,172.188828 201.000000,201.000000 
	C171.979462,201.000000 142.958389,201.000000 113.468658,201.000000 
	C116.238968,200.241302 119.584785,199.781082 122.696594,198.667160 
	C131.516357,195.509995 140.240402,192.085449 149.391907,188.478683 
	C149.781647,188.191162 149.999146,187.910004 150.313889,187.884155 
	C151.463608,187.259399 152.298584,186.660492 153.433975,186.030273 
	C154.510681,185.393646 155.286957,184.788345 156.063232,184.183044 
	C168.235687,176.827789 177.592255,166.667679 185.627075,154.313995 
	C186.412857,152.893936 186.854507,152.008087 187.296158,151.122253 
	C189.541702,146.665924 191.787247,142.209595 194.313553,137.143494 
	C196.263672,130.050201 197.933044,123.566673 199.602417,117.083145 
z"/>
<path fill="#FDFDFD" opacity="1.000000" stroke="none" 
	d="
M4.287120,125.999573 
	C4.508314,126.940750 4.729508,127.881927 5.095127,129.465363 
	C6.148171,132.408676 7.056793,134.709702 7.965416,137.010742 
	C12.449447,145.225922 16.933475,153.441086 21.749561,162.064941 
	C22.348930,162.662552 22.616243,162.851517 22.883556,163.040466 
	C30.341665,170.038467 37.799774,177.036453 45.745399,184.372803 
	C47.108498,185.160126 47.984081,185.609100 48.859665,186.058075 
	C58.275730,192.437012 68.718643,196.342316 79.719452,198.932327 
	C80.792847,199.185043 81.783127,199.790817 82.905991,200.616364 
	C55.738029,201.000000 28.476061,201.000000 1.000000,201.000000 
	C1.000000,172.646133 1.000000,144.291718 0.999997,115.468658 
	C1.377277,115.530785 1.754559,116.061569 2.240530,117.184364 
	C2.552304,118.184479 2.755388,118.592583 2.958472,119.000687 
	C2.984559,119.863266 3.010646,120.725838 3.197775,122.281944 
	C3.668252,123.983505 3.977686,124.991539 4.287120,125.999573 
z"/>
<path fill="#20201E" opacity="1.000000" stroke="none" 
	d="
M107.600006,1.000000 
	C107.376053,1.953234 106.752098,2.906469 106.128151,3.859703 
	C105.430481,3.154011 104.732803,2.448320 104.017563,1.371314 
	C105.066673,1.000000 106.133339,1.000000 107.600006,1.000000 
z"/>
<path fill="#20201E" opacity="1.000000" stroke="none" 
	d="
M104.399994,201.000000 
	C104.623901,200.046753 105.247810,199.093521 105.871719,198.140274 
	C106.569443,198.845978 107.267166,199.551682 107.982445,200.628693 
	C106.933327,201.000000 105.866661,201.000000 104.399994,201.000000 
z"/>
<path fill="#20201E" opacity="1.000000" stroke="none" 
	d="
M97.250000,201.000000 
	C96.167404,200.348251 95.334816,199.696487 94.502228,199.044724 
	C94.782104,198.667084 95.061981,198.289429 95.341850,197.911789 
	C96.217384,198.701187 97.092918,199.490585 97.984222,200.639999 
	C98.000000,201.000000 97.500000,201.000000 97.250000,201.000000 
z"/>
<path fill="#20201E" opacity="1.000000" stroke="none" 
	d="
M97.750000,1.000000 
	C97.267395,2.065152 96.534790,3.130304 95.802177,4.195457 
	C95.350014,3.782972 94.897850,3.370487 94.445686,2.958003 
	C95.155739,2.461530 95.865784,1.965057 96.787918,1.234292 
	C97.000000,1.000000 97.500000,1.000000 97.750000,1.000000 
z"/>
<path fill="#20201E" opacity="1.000000" stroke="none" 
	d="
M1.000000,97.375000 
	C1.828330,97.333412 2.656659,97.666824 3.484987,98.000237 
	C2.876484,98.635475 2.267981,99.270721 1.329739,99.952980 
	C1.000000,99.250000 1.000000,98.500000 1.000000,97.375000 
z"/>
<path fill="#20201E" opacity="1.000000" stroke="none" 
	d="
M1.000000,102.375000 
	C1.839569,102.608360 2.679138,103.216728 3.518708,103.825089 
	C2.901731,104.210213 2.284754,104.595337 1.333889,104.990234 
	C1.000000,104.250000 1.000000,103.500000 1.000000,102.375000 
z"/>
<path fill="#F7F7F7" opacity="1.000000" stroke="none" 
	d="
M36.188595,74.068604 
	C43.174404,60.212490 52.313614,48.262199 66.590714,40.052933 
	C68.773834,38.839340 70.390175,37.930313 72.006523,37.021286 
	C76.103424,35.715164 80.200317,34.409042 84.930466,32.993492 
	C86.072754,32.681992 86.581787,32.479923 87.090828,32.277855 
	C88.843910,32.085552 90.596992,31.893248 93.017105,31.587097 
	C94.123123,31.336729 94.562096,31.200209 95.001076,31.063690 
	C95.451561,31.109314 95.902039,31.154938 97.047722,31.167477 
	C98.495003,31.056837 99.247093,30.979284 99.999176,30.901730 
	C112.425362,31.424105 124.349945,33.851574 135.288651,40.101227 
	C138.232376,41.783077 140.573288,43.888172 139.628784,47.613861 
	C138.737503,51.129684 136.204025,52.742542 132.062042,52.317402 
	C131.578232,52.160336 131.275940,52.231457 131.275940,52.231461 
	C127.455460,50.431538 123.634979,48.631615 119.265030,46.588402 
	C118.143974,46.261444 117.572388,46.177773 117.000793,46.094101 
	C110.879379,45.300732 104.757957,44.507366 97.900604,43.751068 
	C94.443329,44.213104 91.722000,44.638073 89.000671,45.063038 
	C76.692078,47.144218 66.979790,53.804199 58.032009,62.869625 
	C57.372337,63.841225 57.060513,64.369102 56.748688,64.896973 
	C53.201458,71.354019 49.654232,77.811066 45.969891,85.000320 
	C45.429813,87.817238 45.026848,89.901939 44.623882,91.986649 
	C44.392525,93.414619 44.161167,94.842598 43.844482,96.954338 
	C43.818474,98.091972 43.877796,98.545837 43.804657,99.267532 
	C43.751354,100.699341 43.830513,101.863335 43.804108,103.438393 
	C44.063385,106.260002 44.428226,108.670547 44.793064,111.081085 
	C46.827499,116.974785 48.932800,122.845482 50.858242,128.774567 
	C51.539524,130.872498 52.782574,133.636475 51.984108,135.162155 
	C50.862991,137.304337 48.261906,139.023865 45.910164,139.997482 
	C44.964939,140.388779 42.350086,138.674728 41.620243,137.315002 
	C38.892239,132.232590 36.629986,126.900185 34.051147,121.021347 
	C33.548927,119.206245 33.188618,118.031349 32.828304,116.856453 
	C32.608654,107.194489 32.389004,97.532516 32.352989,87.165115 
	C32.712517,85.314827 32.888405,84.169975 33.064289,83.025116 
	C33.710999,81.258675 34.357712,79.492233 35.221611,77.130249 
	C35.688732,75.712669 35.938663,74.890633 36.188595,74.068604 
z"/>
<path fill="#F7F7F7" opacity="1.000000" stroke="none" 
	d="
M170.945114,95.000725 
	C170.924866,97.543800 170.904602,100.086876 170.878418,103.358261 
	C170.781540,105.678322 170.690598,107.270073 170.599640,108.861824 
	C170.098129,111.319473 169.596588,113.777122 168.968140,116.954956 
	C168.200867,120.055794 167.560501,122.436462 166.662323,125.039688 
	C166.142181,126.129044 165.879852,126.995842 165.400131,128.055511 
	C165.069534,128.813446 164.956314,129.378510 164.843109,129.943558 
	C156.183701,146.928650 143.514267,159.586792 124.828522,166.693649 
	C114.142914,168.264191 104.092567,169.579712 94.042229,170.895233 
	C91.967278,170.504715 89.892326,170.114212 87.250687,169.569061 
	C86.683990,169.414398 86.199875,169.440445 86.199875,169.440445 
	C80.040146,167.077209 73.763596,164.972748 67.760323,162.262909 
	C63.514576,160.346405 62.234650,156.516556 64.292412,153.368073 
	C66.533066,149.939758 69.596519,149.327347 73.352348,151.178207 
	C76.902130,152.927536 80.617439,154.340973 85.004501,156.032562 
	C97.725594,159.411377 109.548637,159.334442 121.153397,154.528702 
	C130.615570,151.060638 138.645447,145.538635 145.532440,137.335999 
	C146.741333,135.624969 147.551788,134.384247 148.362244,133.143524 
	C149.641266,131.034958 150.920288,128.926407 152.512329,126.221909 
	C159.156723,110.923897 160.693970,96.029922 154.618256,80.831238 
	C153.552551,78.415619 152.580322,75.953201 151.399811,73.595055 
	C149.510345,69.820732 149.542084,66.346779 153.560165,64.240639 
	C157.593689,62.126411 160.502258,64.065742 162.423325,67.836624 
	C162.723511,68.425896 163.077850,68.987579 163.675781,70.079819 
	C164.271637,71.074211 164.598846,71.550804 164.926086,72.027390 
	C165.902603,74.801270 166.879135,77.575150 168.013000,81.063675 
	C169.095245,86.185776 170.020187,90.593254 170.945114,95.000725 
z"/>
<path fill="#F5F5F4" opacity="1.000000" stroke="none" 
	d="
M72.887497,109.001106 
	C72.804428,107.281708 72.721359,105.562309 72.668594,103.018921 
	C72.921585,100.173180 73.144279,98.151428 73.366974,96.129677 
	C76.951561,89.691315 80.536148,83.252960 84.430298,76.361320 
	C84.972580,75.644379 85.058403,75.339371 84.997322,74.993019 
	C89.969048,67.616882 94.940765,60.240742 100.309860,52.455250 
	C101.137474,52.053585 101.567696,52.061275 102.047600,52.370163 
	C102.741623,53.424263 103.385971,54.177158 104.086487,55.209045 
	C104.646667,56.034618 105.150673,56.581207 105.654678,57.127792 
	C111.572098,65.954048 117.489525,74.780304 123.708435,84.109848 
	C124.518265,85.459389 125.026611,86.305649 125.534950,87.151917 
	C131.560577,99.570976 131.989258,111.711830 122.245293,122.389626 
	C118.928238,126.024582 113.901703,128.099579 108.921326,131.033615 
	C105.639694,131.411423 104.673355,132.664581 104.843361,135.328659 
	C105.080521,139.044830 104.870003,142.789566 104.566040,146.758270 
	C102.566322,147.562164 100.851616,148.129883 98.950333,148.376099 
	C98.228333,146.697906 97.692909,145.341217 97.157486,143.984512 
	C97.207916,143.826263 97.259880,143.668472 97.308525,143.509659 
	C100.467842,133.197403 93.404221,130.282288 85.447037,127.402412 
	C84.828377,126.883934 84.590439,126.805634 84.307449,126.864243 
	C80.971581,122.439293 77.635712,118.014351 74.144386,112.945999 
	C73.621788,111.202103 73.254646,110.101608 72.887497,109.001106 
M121.702682,108.678574 
	C124.721634,92.307281 112.819344,82.293564 105.189224,70.377563 
	C105.189224,88.212181 105.189224,106.046806 105.189224,124.280991 
	C113.716827,122.325218 119.006226,117.502266 121.702682,108.678574 
M80.144897,107.098701 
	C83.354530,117.777985 89.520699,123.744804 97.979820,123.571373 
	C96.085564,112.801529 86.228081,108.653023 81.203194,100.842049 
	C80.829720,101.042397 80.456238,101.242737 80.082764,101.443085 
	C80.082764,103.056625 80.082764,104.670174 80.144897,107.098701 
M94.628860,95.010834 
	C92.240532,92.094727 89.852211,89.178612 87.463882,86.262505 
	C86.748276,86.593803 86.032669,86.925102 85.317062,87.256401 
	C84.989632,89.424019 83.597015,92.410454 84.522758,93.614761 
	C88.153526,98.337982 92.515457,102.499146 96.605797,106.869080 
	C97.202950,106.603241 97.800102,106.337402 98.397247,106.071564 
	C97.308823,102.566620 96.220398,99.061684 94.628860,95.010834 
M97.571465,74.232315 
	C97.482246,73.302399 97.393021,72.372490 97.175339,70.103592 
	C94.555862,74.135506 92.624947,77.107574 91.179626,79.332230 
	C93.469292,81.703682 95.421249,83.725380 97.569992,85.950882 
	C97.569992,82.282669 97.569992,78.677811 97.571465,74.232315 
z"/>
<path fill="#20201E" opacity="1.000000" stroke="none" 
	d="
M104.851051,146.522079 
	C104.870003,142.789566 105.080521,139.044830 104.843361,135.328659 
	C104.673355,132.664581 105.639694,131.411423 108.592949,131.189545 
	C108.783287,132.149414 108.567039,133.099594 108.350792,134.049774 
	C108.750275,133.858749 109.149757,133.667725 109.549248,133.476700 
	C110.887222,135.382568 112.794106,137.118301 113.427094,139.234985 
	C114.329971,142.254211 115.230721,144.270966 118.916908,144.232422 
	C119.793793,144.223267 121.215462,146.420242 121.458344,147.769531 
	C121.794052,149.634567 121.250061,151.657959 121.118103,154.071106 
	C109.548637,159.334442 97.725594,159.411377 85.375130,156.016083 
	C84.344734,154.857529 83.454277,153.924927 83.080383,152.817841 
	C82.296989,150.498245 81.503365,148.099747 81.393188,145.702438 
	C81.370300,145.204468 84.267700,144.194061 85.867203,144.077438 
	C89.338448,143.824326 92.840660,143.996063 96.743851,143.989304 
	C97.692909,145.341217 98.228333,146.697906 98.804665,148.711639 
	C97.774750,151.732346 97.659348,153.008423 101.118790,152.568863 
	C105.260628,152.042587 104.713150,149.204834 104.851051,146.522079 
z"/>
<path fill="#20201E" opacity="1.000000" stroke="none" 
	d="
M154.163513,80.869751 
	C160.693970,96.029922 159.156723,110.923897 152.577972,125.877724 
	C151.984085,125.286827 151.655548,124.436180 151.285980,123.603760 
	C150.907700,122.751740 150.489212,121.917564 150.088318,121.075584 
	C149.645981,121.963188 149.203644,122.850800 148.639633,123.982567 
	C145.346588,121.370766 143.726807,118.374596 143.900238,113.961906 
	C144.238358,105.359154 143.995712,96.733711 144.000488,88.117668 
	C144.004654,80.624977 144.008575,80.631538 151.225601,80.979042 
	C152.050278,81.018753 152.880890,80.934853 154.163513,80.869751 
z"/>
<path fill="#20201E" opacity="1.000000" stroke="none" 
	d="
M93.826447,171.145569 
	C104.092567,169.579712 114.142914,168.264191 124.586136,166.947296 
	C128.518280,168.041687 131.407150,169.586212 129.752304,174.120010 
	C128.269958,178.181198 125.319870,178.045197 121.636604,177.533447 
	C118.289589,177.068436 114.778397,177.926025 111.336464,177.973358 
	C104.595688,178.066101 97.852730,178.000610 90.479576,178.000610 
	C90.257065,175.980484 90.070061,174.282776 89.847748,172.264450 
	C91.226868,171.946136 92.418770,171.671021 93.826447,171.145569 
z"/>
<path fill="#20201E" opacity="1.000000" stroke="none" 
	d="
M3.544417,81.017639 
	C4.564528,75.823372 5.992167,70.647507 7.692730,65.231163 
	C18.001577,63.596275 18.001575,63.596275 18.000660,72.082085 
	C17.999638,81.552467 15.280437,83.652077 5.880386,81.445297 
	C5.240796,81.295151 4.594905,81.171844 3.544417,81.017639 
z"/>
<path fill="#20201E" opacity="1.000000" stroke="none" 
	d="
M63.000244,9.192564 
	C64.908249,7.943983 66.883240,7.083879 69.224197,6.211116 
	C71.848869,6.798931 74.078453,7.590432 76.375313,7.940576 
	C78.277443,8.230546 80.258942,7.999878 82.152977,7.999878 
	C82.664001,16.065741 80.914841,17.974264 73.541809,17.999907 
	C72.220734,18.004501 70.892754,17.913239 69.579948,18.017368 
	C66.688698,18.246695 64.839821,17.618393 64.854691,14.086983 
	C64.861008,12.587537 63.698524,11.083171 63.000244,9.192564 
z"/>
<path fill="#20201E" opacity="1.000000" stroke="none" 
	d="
M166.920135,124.817123 
	C167.560501,122.436462 168.200867,120.055794 168.998810,117.338196 
	C170.489151,116.456306 171.821915,115.911354 174.140732,114.963219 
	C173.017746,120.141579 181.201691,122.922249 176.543976,128.078262 
	C173.960678,130.937912 169.750854,132.349533 165.207581,129.966995 
	C164.956314,129.378510 165.069534,128.813446 165.726501,128.048325 
	C166.486877,126.837875 166.703506,125.827499 166.920135,124.817123 
z"/>
<path fill="#20201E" opacity="1.000000" stroke="none" 
	d="
M8.333855,137.016907 
	C7.056793,134.709702 6.148171,132.408676 5.239206,129.721130 
	C9.167941,126.585175 15.464476,127.333176 17.310244,130.768631 
	C19.334190,134.535721 17.768702,137.318970 13.543429,137.347153 
	C11.930511,137.357925 10.316052,137.137894 8.333855,137.016907 
z"/>
<path fill="#20201E" opacity="1.000000" stroke="none" 
	d="
M171.349335,94.998909 
	C170.020187,90.593254 169.095245,86.185776 168.180847,81.389313 
	C170.607269,81.471825 173.023193,81.943336 176.372955,82.597092 
	C180.532639,88.346825 178.906036,93.900543 171.349335,94.998909 
z"/>
<path fill="#20201E" opacity="1.000000" stroke="none" 
	d="
M149.999146,187.910004 
	C149.999146,187.910004 149.781647,188.191162 149.603943,188.187943 
	C147.390823,187.303391 145.355408,186.422058 143.414764,185.581757 
	C143.702408,183.478882 143.483887,181.601257 144.253983,180.315964 
	C145.242004,178.666977 146.851028,176.749695 148.522034,176.359604 
	C149.783875,176.065033 151.788925,177.754562 153.047562,178.985870 
	C154.286591,180.197968 155.002228,181.945099 156.005371,183.820251 
	C155.286957,184.788345 154.510681,185.393646 153.135239,185.902832 
	C151.690445,186.507828 150.844788,187.208908 149.999146,187.910004 
z"/>
<path fill="#20201E" opacity="1.000000" stroke="none" 
	d="
M187.015259,150.905624 
	C186.854507,152.008087 186.412857,152.893936 185.742950,153.975006 
	C183.549011,153.891907 181.122131,154.223206 179.738022,153.176086 
	C178.121628,151.953262 176.292099,149.360535 176.544846,147.657440 
	C177.096085,143.942993 180.701050,143.445541 183.649078,144.253403 
	C184.843262,144.580658 185.430923,147.224152 186.226349,148.847107 
	C186.501770,149.409073 186.570953,150.072113 187.015259,150.905624 
z"/>
<path fill="#20201E" opacity="1.000000" stroke="none" 
	d="
M132.244263,6.586980 
	C134.018951,6.741819 135.681870,7.290501 137.670654,8.029837 
	C137.872101,10.021865 138.164398,11.995988 137.508896,13.577212 
	C136.820007,15.239010 135.329163,17.575945 133.997375,17.709499 
	C132.319473,17.877766 129.464447,16.490915 128.920654,15.079967 
	C128.309219,13.493553 129.588837,11.090006 130.288330,9.128408 
	C130.584152,8.298827 131.499008,7.689991 132.244263,6.586980 
z"/>
<path fill="#20201E" opacity="1.000000" stroke="none" 
	d="
M199.227234,117.099518 
	C197.933044,123.566673 196.263672,130.050201 194.321335,136.774719 
	C193.225235,131.352249 192.402115,125.688812 191.699539,120.854820 
	C194.755661,119.257248 196.803848,118.186569 199.227234,117.099518 
z"/>
<path fill="#20201E" opacity="1.000000" stroke="none" 
	d="
M105.997116,57.055901 
	C105.150673,56.581207 104.646667,56.034618 104.244461,54.856491 
	C104.562851,52.151405 104.779442,50.077869 104.997910,48.002277 
	C104.999779,48.000225 105.003662,47.995956 105.003662,47.995956 
	C112.953438,48.608143 114.963104,50.696892 113.146408,55.678608 
	C110.659821,56.155479 108.499680,56.569740 105.997116,57.055901 
z"/>
<path fill="#20201E" opacity="1.000000" stroke="none" 
	d="
M170.932785,108.929756 
	C170.690598,107.270073 170.781540,105.678322 170.967834,103.771263 
	C172.812225,102.011108 174.561264,100.566261 176.380722,99.063248 
	C179.258194,101.918831 177.683441,110.467865 173.279068,112.785812 
	C172.608322,111.523674 171.937119,110.260681 170.932785,108.929756 
z"/>
<path fill="#20201E" opacity="1.000000" stroke="none" 
	d="
M72.946327,96.099548 
	C73.144279,98.151428 72.921585,100.173180 72.547569,102.605286 
	C70.078064,102.845924 67.715317,102.858238 65.488976,102.313301 
	C65.148933,102.230064 64.923279,98.601662 65.532005,98.277107 
	C67.652725,97.146400 70.163315,96.746887 72.946327,96.099548 
z"/>
<path fill="#20201E" opacity="1.000000" stroke="none" 
	d="
M45.061069,110.873764 
	C44.428226,108.670547 44.063385,106.260002 44.144627,103.357491 
	C46.679485,101.186928 46.560833,99.881554 43.937119,98.999702 
	C43.877796,98.545837 43.818474,98.091972 43.898460,97.319290 
	C45.974232,97.802277 48.838470,98.099167 49.617584,99.530815 
	C50.643257,101.415520 50.785477,104.220367 47.259548,105.463974 
	C46.143280,105.857674 45.946594,108.858650 45.061069,110.873764 
z"/>
<path fill="#20201E" opacity="1.000000" stroke="none" 
	d="
M194.515167,67.101311 
	C195.641373,69.380005 196.435776,71.756676 197.234070,74.519028 
	C196.281296,77.004135 195.324631,79.103554 194.367966,81.202972 
	C193.822556,81.026947 193.277161,80.850929 192.731766,80.674911 
	C190.645752,76.013176 193.472122,71.676140 194.515167,67.101311 
z"/>
<path fill="#20201E" opacity="1.000000" stroke="none" 
	d="
M101.997925,52.068962 
	C101.567696,52.061275 101.137474,52.053585 100.391563,52.125980 
	C97.919838,49.115395 96.416336,44.915634 91.151169,47.264339 
	C90.747711,47.444317 89.747215,46.285877 89.012451,45.406296 
	C91.722000,44.638073 94.443329,44.213104 97.582550,43.875824 
	C98.181999,46.604183 98.484009,48.904758 102.077850,46.716187 
	C102.661194,46.360939 103.914673,47.106110 104.931030,47.669296 
	C105.003662,47.995956 104.999779,48.000225 104.644714,48.056412 
	C103.525734,49.431385 102.761826,50.750172 101.997925,52.068962 
z"/>
<path fill="#20201E" opacity="1.000000" stroke="none" 
	d="
M72.493866,109.000496 
	C73.254646,110.101608 73.621788,111.202103 73.954712,112.651009 
	C72.634209,112.819557 71.146126,112.129051 70.095093,112.544434 
	C64.184914,114.880196 65.269287,111.023071 65.231651,107.649216 
	C67.782394,108.150803 69.941315,108.575340 72.493866,109.000496 
z"/>
<path fill="#20201E" opacity="1.000000" stroke="none" 
	d="
M44.982979,91.965317 
	C45.026848,89.901939 45.429813,87.817238 45.984451,85.366913 
	C50.186012,86.135002 50.186012,86.135002 49.520977,91.297966 
	C48.157471,91.508751 46.749771,91.726364 44.982979,91.965317 
z"/>
<path fill="#20201E" opacity="1.000000" stroke="none" 
	d="
M86.008392,169.771835 
	C86.199875,169.440445 86.683990,169.414398 86.842514,169.597778 
	C86.349930,172.402283 85.698822,175.023392 84.784225,178.705215 
	C83.112442,176.561905 81.934662,175.051926 80.627708,173.376343 
	C82.799370,172.006561 84.308144,171.054886 86.008392,169.771835 
z"/>
<path fill="#20201E" opacity="1.000000" stroke="none" 
	d="
M32.769176,82.795532 
	C32.888405,84.169975 32.712517,85.314827 32.316116,86.731308 
	C29.844858,85.498703 27.594114,83.994469 24.578447,81.979019 
	C27.117720,80.734497 29.649351,79.966743 32.769176,82.795532 
z"/>
<path fill="#20201E" opacity="1.000000" stroke="none" 
	d="
M116.904327,192.002167 
	C118.293495,192.193420 119.292404,192.384872 120.291321,192.576309 
	C120.286674,192.935165 120.282036,193.294022 120.277390,193.652863 
	C117.113724,194.018295 113.950058,194.383728 110.786392,194.749146 
	C110.682755,194.309753 110.579124,193.870346 110.475487,193.430954 
	C112.488350,192.954758 114.501213,192.478546 116.904327,192.002167 
z"/>
<path fill="#20201E" opacity="1.000000" stroke="none" 
	d="
M131.193604,52.582359 
	C131.275940,52.231457 131.578232,52.160336 131.689453,52.268654 
	C131.828812,54.133667 131.856934,55.890362 131.885071,57.647057 
	C130.306702,57.132751 128.728348,56.618450 126.427269,55.868656 
	C128.747513,54.414597 129.929398,53.673927 131.193604,52.582359 
z"/>
<path fill="#20201E" opacity="1.000000" stroke="none" 
	d="
M87.067657,31.879475 
	C86.581787,32.479923 86.072754,32.681992 85.282066,32.846024 
	C83.995369,30.917503 82.990318,29.027016 81.985268,27.136530 
	C82.512505,26.805866 83.039742,26.475201 83.566978,26.144537 
	C84.726151,27.923389 85.885323,29.702242 87.067657,31.879475 
z"/>
<path fill="#20201E" opacity="1.000000" stroke="none" 
	d="
M148.041412,132.988419 
	C147.551788,134.384247 146.741333,135.624969 145.647491,137.010040 
	C144.819122,135.109787 144.274124,133.065170 143.729126,131.020554 
	C144.113113,130.845139 144.497086,130.669724 144.881073,130.494324 
	C145.827560,131.273987 146.774063,132.053650 148.041412,132.988419 
z"/>
<path fill="#20201E" opacity="1.000000" stroke="none" 
	d="
M49.130936,185.799561 
	C47.984081,185.609100 47.108498,185.160126 46.086227,184.448532 
	C46.770130,182.846985 47.600723,181.508041 48.431316,180.169083 
	C48.903152,180.337585 49.374989,180.506088 49.846828,180.674591 
	C49.698620,182.296753 49.550415,183.918900 49.130936,185.799561 
z"/>
<path fill="#20201E" opacity="1.000000" stroke="none" 
	d="
M71.995262,36.679451 
	C70.390175,37.930313 68.773834,38.839340 66.809517,39.819427 
	C67.630478,38.160938 68.799408,36.431393 69.968338,34.701843 
	C70.640228,35.247105 71.312111,35.792362 71.995262,36.679451 
z"/>
<path fill="#20201E" opacity="1.000000" stroke="none" 
	d="
M149.141541,13.858301 
	C147.901764,18.374269 147.236954,18.700960 142.641144,16.981335 
	C144.614853,15.944627 146.588501,14.907787 148.922058,13.795311 
	C149.281998,13.719673 149.002228,13.998195 149.141541,13.858301 
z"/>
<path fill="#20201E" opacity="1.000000" stroke="none" 
	d="
M4.633094,125.979507 
	C3.977686,124.991539 3.668252,123.983505 3.330564,122.579521 
	C5.000433,121.949478 6.698556,121.715385 8.396679,121.481285 
	C8.657747,121.855843 8.918817,122.230392 9.179885,122.604942 
	C7.779613,123.723106 6.379341,124.841270 4.633094,125.979507 
z"/>
<path fill="#20201E" opacity="1.000000" stroke="none" 
	d="
M48.973423,114.195038 
	C48.402771,112.075989 48.188805,109.967339 47.974838,107.858688 
	C48.614632,107.858589 49.254425,107.858498 49.894222,107.858406 
	C49.706184,109.974083 49.518147,112.089760 48.973423,114.195038 
z"/>
<path fill="#20201E" opacity="1.000000" stroke="none" 
	d="
M73.086609,145.479523 
	C74.536072,146.110443 75.663658,146.801498 77.514832,147.936020 
	C72.983017,148.722565 72.983017,148.722565 73.086609,145.479523 
z"/>
<path fill="#20201E" opacity="1.000000" stroke="none" 
	d="
M60.123627,145.904846 
	C59.843395,147.358383 59.333214,148.588882 58.823032,149.819397 
	C58.248764,149.469162 57.674496,149.118927 57.100227,148.768692 
	C58.031376,147.739746 58.962528,146.710800 60.123627,145.904846 
z"/>
<path fill="#20201E" opacity="1.000000" stroke="none" 
	d="
M125.908020,87.111633 
	C125.026611,86.305649 124.518265,85.459389 123.980293,84.315033 
	C125.453400,84.579399 126.956131,85.141869 128.458862,85.704338 
	C127.732948,86.160011 127.007019,86.615685 125.908020,87.111633 
z"/>
<path fill="#20201E" opacity="1.000000" stroke="none" 
	d="
M44.392570,176.140900 
	C43.629986,176.875534 42.528980,177.530441 41.427975,178.185349 
	C41.177738,177.641663 40.927505,177.097961 40.677269,176.554276 
	C41.802898,176.389908 42.928528,176.225555 44.392570,176.140900 
z"/>
<path fill="#20201E" opacity="1.000000" stroke="none" 
	d="
M158.312988,176.043594 
	C159.535675,176.185867 160.414581,176.351013 161.293503,176.516144 
	C161.268082,176.916306 161.242676,177.316467 161.217255,177.716629 
	C159.743073,177.561844 158.268906,177.407043 156.794724,177.252258 
	C157.186218,176.856995 157.577713,176.461731 158.312988,176.043594 
z"/>
<path fill="#20201E" opacity="1.000000" stroke="none" 
	d="
M99.997498,30.546585 
	C99.247093,30.979284 98.495003,31.056837 97.371613,31.052635 
	C97.582184,29.820150 98.164055,28.669424 98.745926,27.518698 
	C99.162552,28.409609 99.579178,29.300524 99.997498,30.546585 
z"/>
<path fill="#20201E" opacity="1.000000" stroke="none" 
	d="
M32.475971,116.901688 
	C33.188618,118.031349 33.548927,119.206245 33.876263,120.690208 
	C31.889437,120.234375 28.911757,119.903946 32.475971,116.901688 
z"/>
<path fill="#20201E" opacity="1.000000" stroke="none" 
	d="
M57.081337,65.038818 
	C57.060513,64.369102 57.372337,63.841225 57.974136,63.195000 
	C59.361259,63.643688 60.458416,64.210724 61.555576,64.777756 
	C61.450218,65.145088 61.344860,65.512428 61.239498,65.879768 
	C59.964329,65.646736 58.689156,65.413704 57.081337,65.038818 
z"/>
<path fill="#20201E" opacity="1.000000" stroke="none" 
	d="
M194.550415,93.554947 
	C195.320541,92.984192 196.197037,92.701508 197.073547,92.418823 
	C197.082397,92.968224 197.091263,93.517624 197.100128,94.067032 
	C196.285690,93.992355 195.471252,93.917679 194.550415,93.554947 
z"/>
<path fill="#20201E" opacity="1.000000" stroke="none" 
	d="
M35.820122,74.059372 
	C35.938663,74.890633 35.688732,75.712669 35.210125,76.767090 
	C34.163158,76.645699 33.344868,76.291916 32.526577,75.938133 
	C33.501602,75.308807 34.476627,74.679482 35.820122,74.059372 
z"/>
<path fill="#20201E" opacity="1.000000" stroke="none" 
	d="
M194.524078,109.010269 
	C195.307373,108.410545 196.159485,108.118851 197.011597,107.827148 
	C197.145599,108.249855 197.279602,108.672562 197.413605,109.095268 
	C196.473373,109.169617 195.533142,109.243958 194.524078,109.010269 
z"/>
<path fill="#20201E" opacity="1.000000" stroke="none" 
	d="
M60.516281,158.958313 
	C59.615147,158.834915 58.780750,158.410217 57.946358,157.985535 
	C58.299080,157.491608 58.651798,156.997681 59.004520,156.503754 
	C59.530689,157.221512 60.056854,157.939255 60.516281,158.958313 
z"/>
<path fill="#20201E" opacity="1.000000" stroke="none" 
	d="
M74.408707,84.801544 
	C74.984482,83.864693 75.579002,83.211121 76.173531,82.557556 
	C76.511269,83.201447 76.849007,83.845345 77.186745,84.489243 
	C76.266983,84.687775 75.347229,84.886299 74.408707,84.801544 
z"/>
<path fill="#20201E" opacity="1.000000" stroke="none" 
	d="
M148.279312,61.692917 
	C148.802200,61.037758 149.376266,60.682148 149.950333,60.326542 
	C150.123657,60.713215 150.296982,61.099884 150.470322,61.486549 
	C149.757050,61.655186 149.043762,61.823822 148.279312,61.692917 
z"/>
<path fill="#20201E" opacity="1.000000" stroke="none" 
	d="
M124.278961,73.692932 
	C124.801910,73.037743 125.376076,72.682137 125.950241,72.326530 
	C126.057915,72.854767 126.165596,73.382996 126.273277,73.911240 
	C125.625572,73.938332 124.977875,73.965424 124.278961,73.692932 
z"/>
<path fill="#20201E" opacity="1.000000" stroke="none" 
	d="
M37.194176,170.579636 
	C37.332855,169.747574 37.553860,169.211777 37.774868,168.675980 
	C38.139427,169.070648 38.503986,169.465317 38.868546,169.859985 
	C38.337864,170.198624 37.807182,170.537262 37.194176,170.579636 
z"/>
<path fill="#20201E" opacity="1.000000" stroke="none" 
	d="
M115.783005,27.523497 
	C116.453430,27.577915 116.929451,27.825201 117.405472,28.072487 
	C117.203682,28.288052 116.867126,28.715555 116.821037,28.686247 
	C116.382111,28.407164 115.992424,28.050636 115.783005,27.523497 
z"/>
<path fill="#20201E" opacity="1.000000" stroke="none" 
	d="
M23.173401,162.986298 
	C22.616243,162.851517 22.348930,162.662552 22.046349,162.221405 
	C22.791578,161.864212 23.572077,161.759247 24.352577,161.654266 
	C24.056133,162.080215 23.759691,162.506165 23.173401,162.986298 
z"/>
<path fill="#20201E" opacity="1.000000" stroke="none" 
	d="
M41.775169,24.269974 
	C41.936333,24.800604 41.829948,25.270042 41.723564,25.739479 
	C41.347103,25.529650 40.970638,25.319818 40.594177,25.109985 
	C40.898659,24.809584 41.203140,24.509182 41.775169,24.269974 
z"/>
<path fill="#20201E" opacity="1.000000" stroke="none" 
	d="
M84.044678,127.058441 
	C84.590439,126.805634 84.828377,126.883934 85.106682,127.274971 
	C84.694511,128.048035 84.196915,128.645264 83.699318,129.242508 
	C83.726845,128.579208 83.754372,127.915924 84.044678,127.058441 
z"/>
<path fill="#20201E" opacity="1.000000" stroke="none" 
	d="
M171.243500,167.542480 
	C171.015244,168.065948 170.611328,168.411362 170.161346,168.679428 
	C170.115753,168.706604 169.792511,168.267715 169.598099,168.045105 
	C170.083664,167.810913 170.569229,167.576721 171.243500,167.542480 
z"/>
<path fill="#20201E" opacity="1.000000" stroke="none" 
	d="
M165.135101,71.844711 
	C164.598846,71.550804 164.271637,71.074211 163.943787,70.298401 
	C164.410141,70.553467 164.877121,71.107750 165.135101,71.844711 
z"/>
<path fill="#20201E" opacity="1.000000" stroke="none" 
	d="
M58.956245,153.517456 
	C58.820999,153.178970 58.897053,152.843735 58.973106,152.508484 
	C59.037918,152.845886 59.102734,153.183304 58.956245,153.517456 
z"/>
<path fill="#20201E" opacity="1.000000" stroke="none" 
	d="
M177.517242,157.043869 
	C177.178772,157.179092 176.843552,157.103027 176.508316,157.026978 
	C176.845703,156.962173 177.183105,156.897369 177.517242,157.043869 
z"/>
<path fill="#20201E" opacity="1.000000" stroke="none" 
	d="
M87.482651,4.956336 
	C87.821098,4.821084 88.156311,4.897129 88.491524,4.973175 
	C88.154152,5.037994 87.816788,5.102814 87.482651,4.956336 
z"/>
<path fill="#20201E" opacity="1.000000" stroke="none" 
	d="
M192.482605,112.956238 
	C192.821106,112.820969 193.156387,112.897011 193.491653,112.973053 
	C193.154221,113.037888 192.816803,113.102722 192.482605,112.956238 
z"/>
<path fill="#20201E" opacity="1.000000" stroke="none" 
	d="
M4.482739,92.956207 
	C4.821176,92.820961 5.156374,92.896996 5.491572,92.973022 
	C5.154215,93.037842 4.816857,93.102661 4.482739,92.956207 
z"/>
<path fill="#20201E" opacity="1.000000" stroke="none" 
	d="
M25.482628,105.956230 
	C25.821114,105.820984 26.156351,105.897034 26.491587,105.973083 
	C26.154184,106.037895 25.816782,106.102715 25.482628,105.956230 
z"/>
<path fill="#20201E" opacity="1.000000" stroke="none" 
	d="
M54.955891,73.517349 
	C54.820610,73.178848 54.896671,72.843620 54.972733,72.508392 
	C55.037563,72.845802 55.102394,73.183220 54.955891,73.517349 
z"/>
<path fill="#20201E" opacity="1.000000" stroke="none" 
	d="
M84.821136,74.802818 
	C85.058403,75.339371 84.972580,75.644379 84.521454,76.017815 
	C84.043411,75.675545 83.783768,75.223503 83.524124,74.771469 
	C83.897736,74.718513 84.271347,74.665565 84.821136,74.802818 
z"/>
<path fill="#20201E" opacity="1.000000" stroke="none" 
	d="
M16.517157,55.043861 
	C16.178703,55.179096 15.843520,55.103081 15.508337,55.027065 
	C15.845701,54.962250 16.183064,54.897430 16.517157,55.043861 
z"/>
<path fill="#20201E" opacity="1.000000" stroke="none" 
	d="
M94.946762,30.767908 
	C94.562096,31.200209 94.123123,31.336729 93.343903,31.398319 
	C93.633255,31.039635 94.262848,30.755880 94.946762,30.767908 
z"/>
<path fill="#20201E" opacity="1.000000" stroke="none" 
	d="
M194.043777,100.482635 
	C194.179031,100.821114 194.102982,101.156349 194.026917,101.491577 
	C193.962097,101.154182 193.897293,100.816788 194.043777,100.482635 
z"/>
<path fill="#20201E" opacity="1.000000" stroke="none" 
	d="
M164.670288,31.599113 
	C165.003204,31.748301 165.184540,32.041214 165.365875,32.334129 
	C165.083496,32.137032 164.801086,31.939938 164.670288,31.599113 
z"/>
<path fill="#20201E" opacity="1.000000" stroke="none" 
	d="
M47.932922,16.708353 
	C47.908844,16.159386 48.120594,15.985787 48.649361,15.940209 
	C48.981266,16.426348 49.099010,16.909922 49.216751,17.393494 
	C48.833134,17.248419 48.449512,17.103342 47.932922,16.708353 
z"/>
<path fill="#20201E" opacity="1.000000" stroke="none" 
	d="
M3.261431,118.937569 
	C2.755388,118.592583 2.552304,118.184479 2.371431,117.431580 
	C2.783892,117.682678 3.174141,118.278564 3.261431,118.937569 
z"/>
<path fill="#20201E" opacity="1.000000" stroke="none" 
	d="
M198.738007,83.062454 
	C199.243835,83.407547 199.446762,83.815773 199.627716,84.568817 
	C199.215546,84.317612 198.825333,83.721596 198.738007,83.062454 
z"/>
<path fill="#20201E" opacity="1.000000" stroke="none" 
	d="
M156.329895,25.400871 
	C155.996841,25.251604 155.815430,24.958586 155.634033,24.665565 
	C155.916534,24.862749 156.199036,25.059935 156.329895,25.400871 
z"/>
<path fill="#20201E" opacity="1.000000" stroke="none" 
	d="
M2.717217,84.908760 
	C2.451373,84.464401 2.508451,84.015739 2.762289,83.283173 
	C3.441437,83.311852 3.923826,83.624451 4.406215,83.937050 
	C3.950856,84.259521 3.495498,84.581993 2.717217,84.908760 
z"/>
<path fill="#20201E" opacity="1.000000" stroke="none" 
	d="
M75.517685,124.043823 
	C75.179176,124.179070 74.843918,124.103027 74.508659,124.026978 
	C74.846085,123.962166 75.183510,123.897346 75.517685,124.043823 
z"/>
<path fill="#20201E" opacity="1.000000" stroke="none" 
	d="
M125.329422,126.400406 
	C124.995979,126.250832 124.814323,125.957504 124.632668,125.664169 
	C124.915512,125.861656 125.198357,126.059143 125.329422,126.400406 
z"/>
<path fill="#20201E" opacity="1.000000" stroke="none" 
	d="
M64.482666,61.956314 
	C64.821175,61.821045 65.156387,61.897068 65.491608,61.973091 
	C65.154198,62.037933 64.816780,62.102768 64.482666,61.956314 
z"/>
<path fill="#20201E" opacity="1.000000" stroke="none" 
	d="
M34.956146,133.517426 
	C34.820930,133.179031 34.896984,132.843826 34.973038,132.508636 
	C35.037827,132.845978 35.102619,133.183304 34.956146,133.517426 
z"/>
<path fill="#20201E" opacity="1.000000" stroke="none" 
	d="
M63.599045,149.330032 
	C63.748299,148.996933 64.041283,148.815536 64.334274,148.634140 
	C64.137108,148.916672 63.939945,149.199188 63.599045,149.330032 
z"/>
<path fill="#20201E" opacity="1.000000" stroke="none" 
	d="
M136.599121,141.330017 
	C136.748352,140.996887 137.041321,140.815460 137.334305,140.634018 
	C137.137161,140.916595 136.940018,141.199158 136.599121,141.330017 
z"/>
<path fill="#20201E" opacity="1.000000" stroke="none" 
	d="
M117.052902,46.371758 
	C117.572388,46.177773 118.143974,46.261444 118.891998,46.580811 
	C118.413948,46.760811 117.759483,46.705112 117.052902,46.371758 
z"/>
<path fill="#20201E" opacity="1.000000" stroke="none" 
	d="
M127.329727,80.400879 
	C126.996727,80.251625 126.815369,79.958649 126.634003,79.665680 
	C126.916451,79.862839 127.198898,80.059990 127.329727,80.400879 
z"/>
<path fill="#20201E" opacity="1.000000" stroke="none" 
	d="
M68.670250,145.599335 
	C69.003151,145.748535 69.184471,146.041397 69.365784,146.334274 
	C69.083405,146.137192 68.801033,145.940109 68.670250,145.599335 
z"/>
<path fill="#20201E" opacity="1.000000" stroke="none" 
	d="
M147.043701,75.482758 
	C147.178970,75.821144 147.102997,76.156219 147.027023,76.491302 
	C146.962173,76.154015 146.897324,75.816727 147.043701,75.482758 
z"/>
<path fill="#20201E" opacity="1.000000" stroke="none" 
	d="
M15.670019,146.599060 
	C16.003042,146.748276 16.184410,147.041153 16.365778,147.334045 
	C16.083307,147.136932 15.800836,146.939835 15.670019,146.599060 
z"/>
<path fill="#20201E" opacity="1.000000" stroke="none" 
	d="
M22.179199,40.212738 
	C22.140881,39.726910 22.272167,39.428211 22.642403,39.042751 
	C23.118227,39.356014 23.355103,39.756039 23.591978,40.156063 
	C23.177588,40.237331 22.763197,40.318600 22.179199,40.212738 
z"/>
<path fill="#21211F" opacity="1.000000" stroke="none" 
	d="
M150.313889,187.884155 
	C150.844788,187.208908 151.690445,186.507828 152.834824,185.934174 
	C152.298584,186.660492 151.463608,187.259399 150.313889,187.884155 
z"/>
<path fill="#21211F" opacity="1.000000" stroke="none" 
	d="
M43.804657,99.267532 
	C46.560833,99.881554 46.679485,101.186928 44.250191,102.946419 
	C43.830513,101.863335 43.751354,100.699341 43.804657,99.267532 
z"/>
<path fill="#21211F" opacity="1.000000" stroke="none" 
	d="
M166.662323,125.039688 
	C166.703506,125.827499 166.486877,126.837875 165.943878,127.855438 
	C165.879852,126.995842 166.142181,126.129044 166.662323,125.039688 
z"/>
<path fill="#202020" opacity="1.000000" stroke="none" 
	d="
M121.530762,109.061798 
	C119.006226,117.502266 113.716827,122.325218 105.189224,124.280991 
	C105.189224,106.046806 105.189224,88.212181 105.189224,70.377563 
	C112.819344,82.293564 124.721634,92.307281 121.530762,109.061798 
z"/>
<path fill="#292929" opacity="1.000000" stroke="none" 
	d="
M80.113831,106.691208 
	C80.082764,104.670174 80.082764,103.056625 80.082764,101.443085 
	C80.456238,101.242737 80.829720,101.042397 81.203194,100.842049 
	C86.228081,108.653023 96.085564,112.801529 97.979820,123.571373 
	C89.520699,123.744804 83.354530,117.777985 80.113831,106.691208 
z"/>
<path fill="#292929" opacity="1.000000" stroke="none" 
	d="
M94.880417,95.283783 
	C96.220398,99.061684 97.308823,102.566620 98.397247,106.071564 
	C97.800102,106.337402 97.202950,106.603241 96.605797,106.869080 
	C92.515457,102.499146 88.153526,98.337982 84.522758,93.614761 
	C83.597015,92.410454 84.989632,89.424019 85.317062,87.256401 
	C86.032669,86.925102 86.748276,86.593803 87.463882,86.262505 
	C89.852211,89.178612 92.240532,92.094727 94.880417,95.283783 
z"/>
<path fill="#404040" opacity="1.000000" stroke="none" 
	d="
M97.570724,74.652634 
	C97.569992,78.677811 97.569992,82.282669 97.569992,85.950882 
	C95.421249,83.725380 93.469292,81.703682 91.179626,79.332230 
	C92.624947,77.107574 94.555862,74.135506 97.175339,70.103592 
	C97.393021,72.372490 97.482246,73.302399 97.570724,74.652634 
z"/>
<path fill="#21211F" opacity="1.000000" stroke="none" 
	d="
M104.566040,146.758270 
	C104.713150,149.204834 105.260628,152.042587 101.118790,152.568863 
	C97.659348,153.008423 97.774750,151.732346 98.991241,149.033142 
	C100.851616,148.129883 102.566322,147.562164 104.566040,146.758270 
z"/>
<path fill="#21211F" opacity="1.000000" stroke="none" 
	d="
M102.047600,52.370163 
	C102.761826,50.750172 103.525734,49.431385 104.642838,48.058464 
	C104.779442,50.077869 104.562851,52.151405 104.188286,54.577499 
	C103.385971,54.177158 102.741623,53.424263 102.047600,52.370163 
z"/>
</svg>