<svg version="1.1" id="Layer_1" xmlns="http://www.w3.org/2000/svg" xmlns:xlink="http://www.w3.org/1999/xlink" x="0px" y="0px"
	 width="100%" viewBox="0 0 1500 597" enable-background="new 0 0 1500 597" xml:space="preserve">
<path fill="#000000" opacity="1.000000" stroke="none" 
	d="
M1501.000000,380.000000 
	C1501.000000,452.642090 1501.000000,525.284180 1501.000000,598.000000 
	C1160.639771,598.000000 820.279602,598.000000 479.071442,597.709351 
	C478.773895,596.901672 479.248627,596.065186 479.885773,595.914246 
	C497.570618,591.725891 512.336060,582.915527 524.548096,569.310242 
	C541.804688,550.084961 548.546936,527.350708 545.684448,502.359802 
	C542.479736,474.381134 528.132080,452.676636 503.534241,438.286499 
	C500.751343,436.658478 499.842957,434.749664 499.891022,431.522583 
	C500.096924,417.696655 499.978760,403.865845 499.978760,390.036835 
	C499.978790,315.726654 499.989960,241.416443 499.938141,167.106293 
	C499.936035,164.115570 500.312653,162.239304 503.514648,160.576675 
	C512.883667,155.711884 520.512390,148.478622 527.154968,140.366318 
	C543.490601,120.416351 548.693481,97.361969 545.021301,72.188324 
	C542.489075,54.829998 534.602478,39.936287 522.671509,27.160460 
	C511.522461,15.221943 497.672516,7.819154 482.200012,3.122697 
	C481.331879,2.859197 480.727264,1.727569 480.000000,1.000004 
	C820.224304,1.000000 1160.448608,1.000000 1501.000000,1.000000 
	C1501.000000,96.693283 1501.000000,192.386948 1500.722656,288.928833 
	C1499.850220,288.749817 1499.017944,287.791840 1498.694824,286.685150 
	C1490.294678,257.930878 1466.288818,248.038223 1440.428711,251.423950 
	C1428.789185,252.947845 1419.425293,258.383942 1410.954590,265.540405 
	C1410.929810,246.406281 1410.929810,227.740845 1410.929810,208.778412 
	C1409.335815,208.778412 1408.355347,208.769730 1407.375244,208.779770 
	C1400.250610,208.852814 1393.125977,208.929626 1385.751465,208.950897 
	C1385.334839,208.931808 1385.167969,208.967056 1384.576416,208.974182 
	C1383.857178,210.644760 1383.307129,212.343170 1383.304932,214.042282 
	C1383.256226,253.142609 1383.267090,292.243011 1383.266846,331.343384 
	C1383.266724,346.151611 1383.219849,360.960236 1383.342529,375.767395 
	C1383.354126,377.157776 1384.432617,378.539368 1385.480957,379.976440 
	C1394.188599,380.027863 1402.431152,380.027863 1410.818604,380.027863 
	C1410.818604,376.439728 1410.795532,373.618134 1410.822144,370.796997 
	C1411.040039,347.659729 1410.354980,324.468048 1411.733398,301.399780 
	C1413.290527,275.338318 1441.566406,268.730621 1458.818604,278.326874 
	C1469.988892,284.540283 1473.492798,295.056183 1473.707275,306.686829 
	C1474.125122,329.345215 1473.829956,352.016754 1473.830078,374.682831 
	C1473.830078,376.424927 1473.830200,378.167053 1473.830200,380.000000 
	C1483.357666,380.000000 1492.178833,380.000000 1501.000000,380.000000 
M764.267090,288.088409 
	C763.506897,288.156097 762.746704,288.223785 761.064880,288.121246 
	C737.961548,288.105103 714.858276,288.088959 691.504761,287.154144 
	C691.504761,264.757599 691.504761,242.361023 691.504761,219.955017 
	C681.985229,219.955017 673.198120,219.955017 664.086853,219.955017 
	C664.086853,221.963242 664.086853,223.770477 664.086853,225.577728 
	C664.086792,269.377594 664.086731,313.177490 664.086670,356.977356 
	C664.086670,363.472382 663.993286,369.970001 664.172668,376.460083 
	C664.204712,377.619690 665.365723,378.748077 666.933044,380.028900 
	C675.012451,380.028900 683.091797,380.028900 691.599487,380.028900 
	C691.599487,356.676086 691.599487,333.947784 691.599487,311.291962 
	C716.419006,311.291962 740.794800,311.291962 765.598572,311.291962 
	C765.598572,334.398041 765.598572,357.132263 765.598572,379.890961 
	C774.351990,379.890961 782.673279,379.890961 791.844055,379.961365 
	C792.157349,378.459015 792.743164,376.956940 792.744568,375.454346 
	C792.791992,325.166260 792.783569,274.878143 792.783386,224.590042 
	C792.783386,223.124756 792.783447,221.659454 792.783447,219.984726 
	C783.491577,219.984726 774.565308,219.984726 765.086426,219.984726 
	C765.086426,242.823700 765.086426,265.432312 765.023193,288.004181 
	C765.023193,288.004181 765.035583,288.076294 764.267090,288.088409 
M1009.876343,268.107300 
	C1009.876343,262.988251 1009.876343,257.869232 1009.876343,252.699860 
	C1000.630432,252.699860 991.782776,252.699860 982.942444,252.699860 
	C982.814392,253.545212 982.676453,254.031296 982.676270,254.517410 
	C982.662476,295.265411 982.649658,336.013397 982.711609,376.761322 
	C982.713196,377.794373 983.546204,378.826202 984.916870,380.024689 
	C993.168152,380.024689 1001.419434,380.024689 1009.905334,380.024689 
	C1009.905334,372.773010 1009.838013,366.136902 1009.918152,359.502625 
	C1010.144775,340.743988 1010.122437,321.974792 1010.803162,303.231720 
	C1011.263672,290.551666 1020.174622,280.754669 1032.008423,279.741516 
	C1037.215454,279.295685 1042.428833,278.923889 1047.749390,278.509918 
	C1047.749390,269.352295 1047.749390,260.280243 1047.749390,251.036469 
	C1038.529175,250.336075 1030.046265,252.188263 1022.718506,257.339386 
	C1018.012024,260.647858 1014.108887,265.099274 1009.876343,268.107300 
M1227.866943,254.921860 
	C1227.860962,315.123077 1227.853760,375.324280 1227.857300,435.525482 
	C1227.857300,436.683685 1227.981812,437.841858 1227.943237,439.870483 
	C1228.249756,440.185028 1228.553833,440.771576 1228.863159,440.774353 
	C1236.759277,440.845306 1244.656494,440.887848 1252.551758,440.795349 
	C1253.030029,440.789764 1253.494507,439.625275 1254.151001,438.078796 
	C1254.151001,413.217010 1254.151001,388.355225 1254.151001,362.459625 
	C1267.895508,377.275513 1283.871704,383.709778 1302.846313,382.314453 
	C1318.683594,381.149811 1331.968628,374.759094 1342.360840,362.580414 
	C1351.765869,351.558594 1356.669312,338.838928 1357.980957,324.408508 
	C1359.998047,302.217224 1355.238037,282.566559 1338.840942,266.453735 
	C1320.525024,248.455154 1288.246216,245.199142 1267.006226,259.707367 
	C1262.631104,262.695831 1258.664062,266.281738 1253.965332,270.025391 
	C1253.965332,264.257050 1253.965332,259.128510 1254.017334,253.150040 
	C1245.448975,252.966888 1236.880615,252.779877 1228.311401,252.658768 
	C1228.229980,252.657608 1228.136230,253.533508 1227.866943,254.921860 
M839.761414,264.175812 
	C823.032837,279.542572 816.749878,298.753754 818.131592,321.119171 
	C819.261230,339.404144 825.664978,354.981842 839.009094,367.767609 
	C854.484192,382.595245 883.321899,387.383057 902.210388,377.299530 
	C909.206360,373.564789 915.450928,368.422668 921.032104,364.609741 
	C921.032104,372.813019 921.941833,382.470734 920.786560,391.874756 
	C919.529785,402.104279 914.135254,410.457611 904.313049,415.248627 
	C896.566040,419.027374 888.644287,420.642151 879.992432,419.056488 
	C867.564819,416.778839 856.904602,412.303711 851.796570,399.534912 
	C851.398376,398.539642 850.097839,397.236450 849.192566,397.217224 
	C840.800964,397.039368 832.404053,397.112152 823.953003,397.112152 
	C826.162354,416.382660 836.410828,428.857513 853.230164,436.438110 
	C867.326233,442.791321 881.987366,443.902283 897.223206,442.342834 
	C928.829956,439.107788 948.846191,414.724121 949.020020,383.813080 
	C949.256042,341.838989 949.078064,299.862579 949.077576,257.887146 
	C949.077515,256.125793 949.077576,254.364410 949.077576,252.574951 
	C939.702271,252.574951 930.956177,252.574951 921.677734,252.574951 
	C921.677734,258.312744 921.677734,263.785675 921.677734,269.851562 
	C900.836670,245.774216 862.296570,245.134369 839.761414,264.175812 
M1193.560059,299.500275 
	C1193.560059,283.894501 1193.560059,268.288757 1193.560059,252.683395 
	C1184.089478,252.683395 1175.220581,252.683395 1165.982910,252.683395 
	C1165.982910,258.292755 1165.982910,263.520477 1165.982910,269.621796 
	C1153.017090,255.397324 1137.493530,249.825378 1119.309692,250.868027 
	C1097.782837,252.102356 1081.270020,261.989258 1071.268066,280.811005 
	C1058.992065,303.912262 1059.182861,327.892090 1071.037231,351.217194 
	C1082.409790,373.594421 1104.556763,385.001831 1130.234741,382.110504 
	C1144.459473,380.508850 1156.115112,373.931641 1166.361816,362.991486 
	C1166.361816,369.156555 1166.361816,374.431152 1166.361816,379.737061 
	C1175.597290,379.737061 1184.489136,379.737061 1193.560059,379.737061 
	C1193.560059,353.123291 1193.560059,326.811798 1193.560059,299.500275 
z"/>
<path fill="#010101" opacity="1.000000" stroke="none" 
	d="
M103.000000,1.000001 
	C215.355347,1.000000 327.710693,1.000000 440.904266,1.291957 
	C440.838898,2.120078 439.981598,2.763843 439.024414,3.175371 
	C431.340332,6.479033 423.110382,8.869900 416.031586,13.162805 
	C385.598450,31.618776 370.351959,64.186310 375.617981,98.873741 
	C380.369904,130.174637 398.100006,152.632111 427.337738,165.348145 
	C433.639771,168.089005 440.512695,169.517197 447.587646,171.693054 
	C447.587646,161.383331 447.587646,152.483963 447.587646,143.767120 
	C435.053986,140.673584 425.092255,134.287933 416.493378,125.061798 
	C395.859924,102.923119 397.211761,65.264229 419.753052,44.123596 
	C442.682251,22.619150 475.889038,21.458101 499.523102,42.456337 
	C516.825073,57.828648 523.291443,77.897026 517.587585,100.418945 
	C512.071411,122.199692 497.688080,136.485016 475.949158,143.075516 
	C474.786438,143.428009 473.992950,144.998611 472.947083,146.250702 
	C472.921021,146.664688 472.975403,146.830154 472.923828,147.454041 
	C472.810272,248.452179 472.801910,348.991913 472.804810,449.531616 
	C472.804840,450.688690 472.951019,451.845764 472.950806,453.254456 
	C472.947479,453.664948 473.022369,453.823822 473.156952,454.346161 
	C486.015869,458.376343 497.278870,464.438873 505.793488,475.039795 
	C517.319519,489.390076 522.075989,505.764313 518.316589,523.660156 
	C512.098572,553.260010 485.595551,573.341125 456.349884,570.872742 
	C438.035950,569.326904 423.375092,561.360962 412.771820,546.346558 
	C400.663025,529.200439 398.470367,510.617249 405.918091,491.064850 
	C413.196167,471.957733 427.626221,460.711487 447.209290,454.769745 
	C447.686371,453.730438 447.849823,452.908630 447.850098,452.086761 
	C447.863159,415.617432 447.864166,379.148071 447.846619,342.678741 
	C447.846252,341.912598 447.611908,341.146606 447.469940,340.278015 
	C446.512573,340.278015 445.854156,340.277985 445.195709,340.277985 
	C331.457977,340.278473 217.720261,340.278046 103.982536,340.291351 
	C102.662842,340.291504 101.343155,340.469818 99.643028,340.685120 
	C99.188339,347.875092 99.046387,354.945282 99.087303,362.014404 
	C99.097588,363.789062 99.694824,365.560364 100.466324,367.486694 
	C104.739441,367.650208 108.568550,367.668518 112.397659,367.669037 
	C215.286148,367.683044 318.174622,367.695251 421.137146,368.189880 
	C421.218323,389.815033 421.282867,410.958496 421.127930,432.100311 
	C421.115021,433.866089 420.113037,436.449188 418.745544,437.258301 
	C393.132507,452.413422 378.260254,474.501099 375.288361,504.228455 
	C372.687927,530.240356 380.801270,552.716797 398.554108,571.746277 
	C409.760071,583.758057 423.653351,591.303650 439.353455,595.768860 
	C440.365326,596.056580 441.123688,597.235596 442.000000,598.000000 
	C328.977997,598.000000 215.955978,598.000000 102.198944,597.643311 
	C101.866554,597.020996 102.239677,596.591614 102.676010,596.513000 
	C147.723007,588.395630 178.755447,544.379211 170.960434,498.683655 
	C166.332809,471.555847 151.943954,451.320038 128.311981,437.556030 
	C119.362610,432.343628 109.708778,429.035339 99.044678,427.660980 
	C99.044678,436.169006 98.898888,444.155670 99.196648,452.125793 
	C99.243088,453.368835 101.110313,455.251251 102.473694,455.634186 
	C135.452820,464.897186 153.578293,501.601288 141.110626,533.626587 
	C130.944611,559.739685 104.614540,574.615540 78.018753,570.644836 
	C57.796432,567.625732 42.709175,556.338806 33.454094,537.584595 
	C19.681925,509.677032 31.149376,474.454407 58.973408,460.491577 
	C63.781658,458.078705 68.910614,456.304871 74.119263,454.141205 
	C74.119263,448.767731 74.251892,443.275604 74.074623,437.793518 
	C73.947388,433.858887 73.405945,429.937653 73.155594,425.551544 
	C73.267670,340.420624 73.273445,255.748581 73.591049,170.782120 
	C73.974808,162.830963 73.889793,155.167938 74.197319,147.520691 
	C74.317245,144.538391 72.969696,143.746780 70.533852,142.719955 
	C64.193878,140.047363 57.429062,137.753799 51.954029,133.769547 
	C30.894266,118.444077 22.668604,93.850220 30.293005,68.818115 
	C37.822685,44.096996 59.725174,28.223318 85.026146,27.467772 
	C103.681923,26.910664 119.122665,34.542706 131.267410,48.481079 
	C142.645020,61.539032 147.355042,77.310791 144.705307,94.104858 
	C140.730667,119.296326 125.750572,135.856201 101.125710,143.401611 
	C100.283760,143.659576 99.856918,145.272308 99.168091,146.435440 
	C99.099594,146.617310 99.235641,146.981430 99.147789,147.442810 
	C99.059937,184.179703 99.059937,220.455246 99.059937,257.058655 
	C101.148727,257.058655 102.965050,257.058655 104.781364,257.058655 
	C216.861633,257.058685 328.941925,257.059479 441.022186,257.051117 
	C442.682526,257.050964 444.342896,256.936890 446.434570,256.923950 
	C447.179901,256.673859 447.765686,256.378113 447.768219,256.077484 
	C447.836639,247.883759 447.876831,239.689209 447.784698,231.496323 
	C447.779327,231.018112 446.622894,230.552872 445.541443,229.988861 
	C338.663818,229.896149 232.246964,229.896149 125.606400,229.896149 
	C125.606400,207.925369 125.564262,186.600403 125.706238,165.276657 
	C125.715195,163.930679 126.826630,161.975739 127.988258,161.350845 
	C137.602722,156.178894 145.853317,149.421295 152.625473,140.882812 
	C172.724182,115.541840 177.806046,87.095139 166.910690,56.998985 
	C156.439117,28.073555 135.220459,9.787363 104.961334,2.553165 
	C104.225815,2.377322 103.650200,1.532699 103.000000,1.000001 
M446.871918,312.124023 
	C447.180908,311.805695 447.756897,311.489807 447.759796,311.168701 
	C447.831299,303.289001 447.874573,295.408386 447.783661,287.529510 
	C447.778137,287.049011 446.623016,286.581757 445.084656,285.933228 
	C331.548370,285.927887 218.012085,285.921967 104.475800,285.925232 
	C103.316086,285.925262 102.156380,286.045715 100.125732,285.986938 
	C99.797440,286.275421 99.185059,286.561157 99.182281,286.852722 
	C99.106583,294.789429 99.061096,302.727112 99.152153,310.662994 
	C99.157402,311.120056 100.359261,311.563416 101.913193,312.234161 
	C215.451675,312.241882 328.990143,312.250336 442.528625,312.247192 
	C443.685150,312.247162 444.841705,312.094055 446.871918,312.124023 
z"/>
<path fill="#F2EFF9" opacity="1.000000" stroke="none" 
	d="
M446.003235,256.876007 
	C444.342896,256.936890 442.682526,257.050964 441.022186,257.051117 
	C328.941925,257.059479 216.861633,257.058685 104.781364,257.058655 
	C102.965050,257.058655 101.148727,257.058655 99.059937,257.058655 
	C99.059937,220.455246 99.059937,184.179703 99.393753,147.403473 
	C99.563904,146.686371 99.400246,146.469971 99.236588,146.253571 
	C99.856918,145.272308 100.283760,143.659576 101.125710,143.401611 
	C125.750572,135.856201 140.730667,119.296326 144.705307,94.104858 
	C147.355042,77.310791 142.645020,61.539032 131.267410,48.481079 
	C119.122665,34.542706 103.681923,26.910664 85.026146,27.467772 
	C59.725174,28.223318 37.822685,44.096996 30.293005,68.818115 
	C22.668604,93.850220 30.894266,118.444077 51.954029,133.769547 
	C57.429062,137.753799 64.193878,140.047363 70.533852,142.719955 
	C72.969696,143.746780 74.317245,144.538391 74.197319,147.520691 
	C73.889793,155.167938 73.974808,162.830963 73.244705,171.020599 
	C72.392250,173.178009 72.028526,174.802429 72.027977,176.427002 
	C72.000290,257.897461 71.997238,339.367950 72.047287,420.838409 
	C72.048347,422.562622 72.700737,424.286438 73.049286,426.010437 
	C73.405945,429.937653 73.947388,433.858887 74.074623,437.793518 
	C74.251892,443.275604 74.119263,448.767731 74.119263,454.141205 
	C68.910614,456.304871 63.781658,458.078705 58.973408,460.491577 
	C31.149376,474.454407 19.681925,509.677032 33.454094,537.584595 
	C42.709175,556.338806 57.796432,567.625732 78.018753,570.644836 
	C104.614540,574.615540 130.944611,559.739685 141.110626,533.626587 
	C153.578293,501.601288 135.452820,464.897186 102.473694,455.634186 
	C101.110313,455.251251 99.243088,453.368835 99.196648,452.125793 
	C98.898888,444.155670 99.044678,436.169006 99.044678,427.660980 
	C109.708778,429.035339 119.362610,432.343628 128.311981,437.556030 
	C151.943954,451.320038 166.332809,471.555847 170.960434,498.683655 
	C178.755447,544.379211 147.723007,588.395630 102.676010,596.513000 
	C102.239677,596.591614 101.866554,597.020996 101.731964,597.643311 
	C92.312439,598.000000 82.624878,598.000000 72.391052,597.618591 
	C71.450569,596.973145 71.082832,596.534729 70.658287,596.470154 
	C53.265060,593.826904 38.518734,585.703613 26.175648,573.593445 
	C14.301991,561.943848 6.299986,547.784241 2.598416,531.380981 
	C2.402177,530.511353 1.547915,529.790283 0.999992,529.000000 
	C1.000000,517.312439 1.000000,505.624878 1.313720,493.807159 
	C2.026183,493.208160 2.648511,492.798828 2.791521,492.261871 
	C9.178264,468.280609 22.949282,449.953003 44.373055,437.305786 
	C45.759014,436.487610 46.844650,433.927185 46.847000,432.175568 
	C46.965946,343.574097 46.938389,254.972382 47.011833,166.370773 
	C47.014168,163.556122 46.203674,162.134308 43.639095,160.755066 
	C34.189964,155.673309 26.498579,148.390091 19.625933,140.238434 
	C11.628012,130.752106 6.487603,119.797729 3.164412,107.906540 
	C2.947407,107.130043 1.744375,106.629112 1.000000,106.000000 
	C1.000000,94.312439 1.000000,82.624878 1.392088,70.436584 
	C1.927412,69.852043 2.172600,69.792755 2.199504,69.680946 
	C10.864256,33.670963 32.809994,10.919477 69.160744,2.486182 
	C69.535263,2.399294 69.724350,1.513066 70.000000,1.000000 
	C80.687561,1.000000 91.375122,1.000000 102.531342,1.000001 
	C103.650200,1.532699 104.225815,2.377322 104.961334,2.553165 
	C135.220459,9.787363 156.439117,28.073555 166.910690,56.998985 
	C177.806046,87.095139 172.724182,115.541840 152.625473,140.882812 
	C145.853317,149.421295 137.602722,156.178894 127.988258,161.350845 
	C126.826630,161.975739 125.715195,163.930679 125.706238,165.276657 
	C125.564262,186.600403 125.606400,207.925369 125.606400,229.896149 
	C232.246964,229.896149 338.663818,229.896149 445.539673,230.452316 
	C446.000183,239.630997 446.001709,248.253494 446.003235,256.876007 
z"/>
<path fill="#F0EDF7" opacity="1.000000" stroke="none" 
	d="
M473.028992,453.002838 
	C472.951019,451.845764 472.804840,450.688690 472.804810,449.531616 
	C472.801910,348.991913 472.810272,248.452179 473.076355,147.358597 
	C473.232422,146.537201 473.130005,146.269684 473.027557,146.002151 
	C473.992950,144.998611 474.786438,143.428009 475.949158,143.075516 
	C497.688080,136.485016 512.071411,122.199692 517.587585,100.418945 
	C523.291443,77.897026 516.825073,57.828648 499.523102,42.456337 
	C475.889038,21.458101 442.682251,22.619150 419.753052,44.123596 
	C397.211761,65.264229 395.859924,102.923119 416.493378,125.061798 
	C425.092255,134.287933 435.053986,140.673584 447.587646,143.767120 
	C447.587646,152.483963 447.587646,161.383331 447.587646,171.693054 
	C440.512695,169.517197 433.639771,168.089005 427.337738,165.348145 
	C398.100006,152.632111 380.369904,130.174637 375.617981,98.873741 
	C370.351959,64.186310 385.598450,31.618776 416.031586,13.162805 
	C423.110382,8.869900 431.340332,6.479033 439.024414,3.175371 
	C439.981598,2.763843 440.838898,2.120078 441.371246,1.291957 
	C453.687561,1.000000 466.375122,1.000000 479.531342,1.000004 
	C480.727264,1.727569 481.331879,2.859197 482.200012,3.122697 
	C497.672516,7.819154 511.522461,15.221943 522.671509,27.160460 
	C534.602478,39.936287 542.489075,54.829998 545.021301,72.188324 
	C548.693481,97.361969 543.490601,120.416351 527.154968,140.366318 
	C520.512390,148.478622 512.883667,155.711884 503.514648,160.576675 
	C500.312653,162.239304 499.936035,164.115570 499.938141,167.106293 
	C499.989960,241.416443 499.978790,315.726654 499.978760,390.036835 
	C499.978760,403.865845 500.096924,417.696655 499.891022,431.522583 
	C499.842957,434.749664 500.751343,436.658478 503.534241,438.286499 
	C528.132080,452.676636 542.479736,474.381134 545.684448,502.359802 
	C548.546936,527.350708 541.804688,550.084961 524.548096,569.310242 
	C512.336060,582.915527 497.570618,591.725891 479.885773,595.914246 
	C479.248627,596.065186 478.773895,596.901672 478.611755,597.709351 
	C466.979095,598.000000 454.958221,598.000000 442.468658,598.000000 
	C441.123688,597.235596 440.365326,596.056580 439.353455,595.768860 
	C423.653351,591.303650 409.760071,583.758057 398.554108,571.746277 
	C380.801270,552.716797 372.687927,530.240356 375.288361,504.228455 
	C378.260254,474.501099 393.132507,452.413422 418.745544,437.258301 
	C420.113037,436.449188 421.115021,433.866089 421.127930,432.100311 
	C421.282867,410.958496 421.218323,389.815033 420.972015,367.835327 
	C419.355469,366.665375 417.978241,366.040924 416.600708,366.040314 
	C312.549164,365.994965 208.497589,365.993286 104.446037,366.054169 
	C102.971214,366.055054 101.496880,366.888397 100.022316,367.333191 
	C99.694824,365.560364 99.097588,363.789062 99.087303,362.014404 
	C99.046387,354.945282 99.188339,347.875092 99.812378,341.018616 
	C102.280540,341.488342 104.198837,341.968597 106.117287,341.969208 
	C216.868179,342.005096 327.619080,341.996246 438.369995,342.010864 
	C446.993195,342.012024 445.979919,341.133362 445.988098,349.861023 
	C446.018066,381.837189 446.024200,413.813507 445.956726,445.789551 
	C445.950958,448.520142 445.276672,451.245392 445.086090,453.985138 
	C445.065765,454.277557 446.213654,454.651215 446.819580,454.987183 
	C427.626221,460.711487 413.196167,471.957733 405.918091,491.064850 
	C398.470367,510.617249 400.663025,529.200439 412.771820,546.346558 
	C423.375092,561.360962 438.035950,569.326904 456.349884,570.872742 
	C485.595551,573.341125 512.098572,553.260010 518.316589,523.660156 
	C522.075989,505.764313 517.319519,489.390076 505.793488,475.039795 
	C497.278870,464.438873 486.015869,458.376343 473.297272,454.241913 
	C473.261597,453.517090 473.145294,453.259949 473.028992,453.002838 
z"/>
<path fill="#010101" opacity="1.000000" stroke="none" 
	d="
M1.000000,106.468658 
	C1.744375,106.629112 2.947407,107.130043 3.164412,107.906540 
	C6.487603,119.797729 11.628012,130.752106 19.625933,140.238434 
	C26.498579,148.390091 34.189964,155.673309 43.639095,160.755066 
	C46.203674,162.134308 47.014168,163.556122 47.011833,166.370773 
	C46.938389,254.972382 46.965946,343.574097 46.847000,432.175568 
	C46.844650,433.927185 45.759014,436.487610 44.373055,437.305786 
	C22.949282,449.953003 9.178264,468.280609 2.791521,492.261871 
	C2.648511,492.798828 2.026183,493.208160 1.313720,493.338501 
	C1.000000,364.312439 1.000000,235.624878 1.000000,106.468658 
z"/>
<path fill="#F2EFF8" opacity="1.000000" stroke="none" 
	d="
M1501.000000,379.531342 
	C1492.178833,380.000000 1483.357666,380.000000 1473.830200,380.000000 
	C1473.830200,378.167053 1473.830078,376.424927 1473.830078,374.682831 
	C1473.829956,352.016754 1474.125122,329.345215 1473.707275,306.686829 
	C1473.492798,295.056183 1469.988892,284.540283 1458.818604,278.326874 
	C1441.566406,268.730621 1413.290527,275.338318 1411.733398,301.399780 
	C1410.354980,324.468048 1411.040039,347.659729 1410.822144,370.796997 
	C1410.795532,373.618134 1410.818604,376.439728 1410.818604,380.027863 
	C1402.431152,380.027863 1394.188599,380.027863 1385.420898,379.515594 
	C1384.881348,348.591400 1384.843140,318.179474 1384.859863,287.767548 
	C1384.874390,261.512451 1384.951538,235.257401 1385.000977,209.002319 
	C1385.167969,208.967056 1385.334839,208.931808 1386.088257,209.184570 
	C1391.959595,209.597519 1397.243774,209.778549 1402.529175,209.833160 
	C1409.143066,209.901520 1409.152100,209.856689 1409.154419,216.250854 
	C1409.159790,231.166336 1409.098633,246.082367 1409.236206,260.996613 
	C1409.251587,262.672668 1410.371582,264.338531 1410.979248,266.009094 
	C1419.425293,258.383942 1428.789185,252.947845 1440.428711,251.423950 
	C1466.288818,248.038223 1490.294678,257.930878 1498.694824,286.685150 
	C1499.017944,287.791840 1499.850220,288.749817 1500.722656,289.388550 
	C1501.000000,319.020905 1501.000000,349.041779 1501.000000,379.531342 
z"/>
<path fill="#030303" opacity="1.000000" stroke="none" 
	d="
M0.999992,529.468628 
	C1.547915,529.790283 2.402177,530.511353 2.598416,531.380981 
	C6.299986,547.784241 14.301991,561.943848 26.175648,573.593445 
	C38.518734,585.703613 53.265060,593.826904 70.658287,596.470154 
	C71.082832,596.534729 71.450569,596.973145 71.922394,597.618591 
	C48.407524,598.000000 24.815046,598.000000 1.000000,598.000000 
	C1.000000,575.312927 1.000000,552.625122 0.999992,529.468628 
z"/>
<path fill="#030303" opacity="1.000000" stroke="none" 
	d="
M69.531342,1.000000 
	C69.724350,1.513066 69.535263,2.399294 69.160744,2.486182 
	C32.809994,10.919477 10.864256,33.670963 2.199504,69.680946 
	C2.172600,69.792755 1.927412,69.852043 1.392088,69.967926 
	C1.000000,47.073147 1.000000,24.146292 1.000000,1.000000 
	C23.687090,1.000000 46.374886,1.000000 69.531342,1.000000 
z"/>
<path fill="#F1EFF8" opacity="1.000000" stroke="none" 
	d="
M840.106201,264.068481 
	C862.296570,245.134369 900.836670,245.774216 921.677734,269.851562 
	C921.677734,263.785675 921.677734,258.312744 921.677734,252.574951 
	C930.956177,252.574951 939.702271,252.574951 949.077576,252.574951 
	C949.077576,254.364410 949.077515,256.125793 949.077576,257.887146 
	C949.078064,299.862579 949.256042,341.838989 949.020020,383.813080 
	C948.846191,414.724121 928.829956,439.107788 897.223206,442.342834 
	C881.987366,443.902283 867.326233,442.791321 853.230164,436.438110 
	C836.410828,428.857513 826.162354,416.382660 823.953003,397.112152 
	C832.404053,397.112152 840.800964,397.039368 849.192566,397.217224 
	C850.097839,397.236450 851.398376,398.539642 851.796570,399.534912 
	C856.904602,412.303711 867.564819,416.778839 879.992432,419.056488 
	C888.644287,420.642151 896.566040,419.027374 904.313049,415.248627 
	C914.135254,410.457611 919.529785,402.104279 920.786560,391.874756 
	C921.941833,382.470734 921.032104,372.813019 921.032104,364.609741 
	C915.450928,368.422668 909.206360,373.564789 902.210388,377.299530 
	C883.321899,387.383057 854.484192,382.595245 839.009094,367.767609 
	C825.664978,354.981842 819.261230,339.404144 818.131592,321.119171 
	C816.749878,298.753754 823.032837,279.542572 840.106201,264.068481 
M902.314819,353.976929 
	C913.482483,346.416199 919.399292,336.011902 921.288208,322.534271 
	C923.616577,305.921600 916.410461,287.792175 902.384094,279.396637 
	C884.963196,268.969330 862.909058,274.963348 852.580200,291.366089 
	C845.939819,301.911499 844.369934,313.235840 846.342346,325.113434 
	C850.576477,350.612335 876.412354,367.455994 902.314819,353.976929 
z"/>
<path fill="#F2EFF8" opacity="1.000000" stroke="none" 
	d="
M1228.048218,439.000061 
	C1227.981812,437.841858 1227.857300,436.683685 1227.857300,435.525482 
	C1227.853760,375.324280 1227.860962,315.123077 1228.423096,254.460938 
	C1237.307983,253.999985 1245.636597,253.999969 1253.965332,253.999969 
	C1253.965332,259.128510 1253.965332,264.257050 1253.965332,270.025391 
	C1258.664062,266.281738 1262.631104,262.695831 1267.006226,259.707367 
	C1288.246216,245.199142 1320.525024,248.455154 1338.840942,266.453735 
	C1355.238037,282.566559 1359.998047,302.217224 1357.980957,324.408508 
	C1356.669312,338.838928 1351.765869,351.558594 1342.360840,362.580414 
	C1331.968628,374.759094 1318.683594,381.149811 1302.846313,382.314453 
	C1283.871704,383.709778 1267.895508,377.275513 1254.151001,362.459625 
	C1254.151001,388.355225 1254.151001,413.217010 1253.591797,438.539398 
	C1244.704346,439.000000 1236.376343,439.000031 1228.048218,439.000061 
M1255.885132,327.464172 
	C1257.541138,336.009277 1261.628906,343.111298 1268.001343,349.094666 
	C1284.119995,364.228943 1309.457031,361.201752 1322.335693,343.649292 
	C1329.842651,333.417847 1331.698975,321.965637 1330.467651,309.895935 
	C1328.411621,289.743256 1314.499878,274.817291 1294.016235,274.386108 
	C1265.644897,273.788940 1250.115234,300.355225 1255.885132,327.464172 
z"/>
<path fill="#F1EFF8" opacity="1.000000" stroke="none" 
	d="
M1193.560059,300.000305 
	C1193.560059,326.811798 1193.560059,353.123291 1193.560059,379.737061 
	C1184.489136,379.737061 1175.597290,379.737061 1166.361816,379.737061 
	C1166.361816,374.431152 1166.361816,369.156555 1166.361816,362.991486 
	C1156.115112,373.931641 1144.459473,380.508850 1130.234741,382.110504 
	C1104.556763,385.001831 1082.409790,373.594421 1071.037231,351.217194 
	C1059.182861,327.892090 1058.992065,303.912262 1071.268066,280.811005 
	C1081.270020,261.989258 1097.782837,252.102356 1119.309692,250.868027 
	C1137.493530,249.825378 1153.017090,255.397324 1165.982910,269.621796 
	C1165.982910,263.520477 1165.982910,258.292755 1165.982910,252.683395 
	C1175.220581,252.683395 1184.089478,252.683395 1193.560059,252.683395 
	C1193.560059,268.288757 1193.560059,283.894501 1193.560059,300.000305 
M1143.629761,277.654327 
	C1126.843628,269.664246 1109.129395,276.362762 1100.037964,287.238098 
	C1088.205811,301.391815 1087.328369,326.283356 1097.731567,341.896149 
	C1110.977539,361.775269 1138.559448,365.032410 1155.221313,347.086853 
	C1163.797241,337.850250 1166.779541,326.632874 1166.202881,314.208099 
	C1165.456177,298.121552 1158.891968,285.666382 1143.629761,277.654327 
z"/>
<path fill="#F0EDF7" opacity="1.000000" stroke="none" 
	d="
M790.994507,379.890961 
	C782.673279,379.890961 774.351990,379.890961 765.598572,379.890961 
	C765.598572,357.132263 765.598572,334.398041 765.598572,311.291962 
	C740.794800,311.291962 716.419006,311.291962 691.599487,311.291962 
	C691.599487,333.947784 691.599487,356.676086 691.599487,380.028900 
	C683.091797,380.028900 675.012451,380.028900 666.460327,379.498230 
	C665.985229,331.315460 665.982849,283.663300 665.980652,236.011154 
	C665.980469,232.345612 666.117249,228.673538 665.940918,225.016541 
	C665.795654,222.004288 666.896423,220.821854 669.967163,220.935867 
	C674.792358,221.115005 679.649475,221.256424 684.455017,220.900421 
	C688.821045,220.576981 690.178467,221.956863 690.119263,226.446396 
	C689.871399,245.270721 689.969666,264.100464 690.090454,282.927307 
	C690.101562,284.645966 691.174866,286.357819 691.754944,288.072815 
	C714.858276,288.088959 737.961548,288.105103 761.599182,288.510986 
	C763.100830,288.625916 764.068237,288.351105 765.035583,288.076294 
	C765.035583,288.076294 765.023193,288.004181 765.440430,287.912842 
	C766.232788,286.127686 766.927063,284.435211 766.934021,282.739899 
	C767.011597,263.766602 767.063416,244.792206 766.913147,225.819763 
	C766.884460,222.199020 767.810974,220.671265 771.658691,220.912842 
	C776.300598,221.204239 781.001282,221.291107 785.627502,220.894333 
	C790.241821,220.498566 791.115967,222.381989 791.104492,226.604385 
	C790.964966,277.699646 791.002808,328.795349 790.994507,379.890961 
z"/>
<path fill="#F1EEF8" opacity="1.000000" stroke="none" 
	d="
M1009.845703,269.038361 
	C1014.108887,265.099274 1018.012024,260.647858 1022.718506,257.339386 
	C1030.046265,252.188263 1038.529175,250.336075 1047.749390,251.036469 
	C1047.749390,260.280243 1047.749390,269.352295 1047.749390,278.509918 
	C1042.428833,278.923889 1037.215454,279.295685 1032.008423,279.741516 
	C1020.174622,280.754669 1011.263672,290.551666 1010.803162,303.231720 
	C1010.122437,321.974792 1010.144775,340.743988 1009.918152,359.502625 
	C1009.838013,366.136902 1009.905334,372.773010 1009.905334,380.024689 
	C1001.419434,380.024689 993.168152,380.024689 984.456360,379.481995 
	C983.996460,353.784760 983.997070,328.630280 983.997559,303.475769 
	C983.997803,288.483032 984.088684,273.489319 983.930237,258.498230 
	C983.893311,255.001404 984.987671,253.739502 988.497437,253.942017 
	C992.814331,254.191086 997.156494,253.998322 1001.487732,254.001373 
	C1007.993469,254.005951 1007.810974,254.015442 1008.083496,260.478210 
	C1008.204651,263.351227 1009.230469,266.186157 1009.845703,269.038361 
z"/>
<path fill="#E8E6EA" opacity="1.000000" stroke="none" 
	d="
M791.419312,379.926147 
	C791.002808,328.795349 790.964966,277.699646 791.104492,226.604385 
	C791.115967,222.381989 790.241821,220.498566 785.627502,220.894333 
	C781.001282,221.291107 776.300598,221.204239 771.658691,220.912842 
	C767.810974,220.671265 766.884460,222.199020 766.913147,225.819763 
	C767.063416,244.792206 767.011597,263.766602 766.934021,282.739899 
	C766.927063,284.435211 766.232788,286.127686 765.472046,287.931183 
	C765.086426,265.432312 765.086426,242.823700 765.086426,219.984726 
	C774.565308,219.984726 783.491577,219.984726 792.783447,219.984726 
	C792.783447,221.659454 792.783386,223.124756 792.783386,224.590042 
	C792.783569,274.878143 792.791992,325.166260 792.744568,375.454346 
	C792.743164,376.956940 792.157349,378.459015 791.419312,379.926147 
z"/>
<path fill="#E8E6EA" opacity="1.000000" stroke="none" 
	d="
M691.629883,287.613464 
	C691.174866,286.357819 690.101562,284.645966 690.090454,282.927307 
	C689.969666,264.100464 689.871399,245.270721 690.119263,226.446396 
	C690.178467,221.956863 688.821045,220.576981 684.455017,220.900421 
	C679.649475,221.256424 674.792358,221.115005 669.967163,220.935867 
	C666.896423,220.821854 665.795654,222.004288 665.940918,225.016541 
	C666.117249,228.673538 665.980469,232.345612 665.980652,236.011154 
	C665.982849,283.663300 665.985229,331.315460 665.996582,379.429230 
	C665.365723,378.748077 664.204712,377.619690 664.172668,376.460083 
	C663.993286,369.970001 664.086670,363.472382 664.086670,356.977356 
	C664.086731,313.177490 664.086792,269.377594 664.086853,225.577728 
	C664.086853,223.770477 664.086853,221.963242 664.086853,219.955017 
	C673.198120,219.955017 681.985229,219.955017 691.504761,219.955017 
	C691.504761,242.361023 691.504761,264.757599 691.629883,287.613464 
z"/>
<path fill="#CECDD0" opacity="1.000000" stroke="none" 
	d="
M1384.576416,208.974182 
	C1384.951538,235.257401 1384.874390,261.512451 1384.859863,287.767548 
	C1384.843140,318.179474 1384.881348,348.591400 1384.955811,379.464172 
	C1384.432617,378.539368 1383.354126,377.157776 1383.342529,375.767395 
	C1383.219849,360.960236 1383.266724,346.151611 1383.266846,331.343384 
	C1383.267090,292.243011 1383.256226,253.142609 1383.304932,214.042282 
	C1383.307129,212.343170 1383.857178,210.644760 1384.576416,208.974182 
z"/>
<path fill="#FFFEFF" opacity="1.000000" stroke="none" 
	d="
M1009.861023,268.572815 
	C1009.230469,266.186157 1008.204651,263.351227 1008.083496,260.478210 
	C1007.810974,254.015442 1007.993469,254.005951 1001.487732,254.001373 
	C997.156494,253.998322 992.814331,254.191086 988.497437,253.942017 
	C984.987671,253.739502 983.893311,255.001404 983.930237,258.498230 
	C984.088684,273.489319 983.997803,288.483032 983.997559,303.475769 
	C983.997070,328.630280 983.996460,353.784760 983.993652,379.398926 
	C983.546204,378.826202 982.713196,377.794373 982.711609,376.761322 
	C982.649658,336.013397 982.662476,295.265411 982.676270,254.517410 
	C982.676453,254.031296 982.814392,253.545212 982.942444,252.699860 
	C991.782776,252.699860 1000.630432,252.699860 1009.876343,252.699860 
	C1009.876343,257.869232 1009.876343,262.988251 1009.861023,268.572815 
z"/>
<path fill="#CECDD0" opacity="1.000000" stroke="none" 
	d="
M1410.954590,265.540405 
	C1410.371582,264.338531 1409.251587,262.672668 1409.236206,260.996613 
	C1409.098633,246.082367 1409.159790,231.166336 1409.154419,216.250854 
	C1409.152100,209.856689 1409.143066,209.901520 1402.529175,209.833160 
	C1397.243774,209.778549 1391.959595,209.597519 1386.338135,209.238922 
	C1393.125977,208.929626 1400.250610,208.852814 1407.375244,208.779770 
	C1408.355347,208.769730 1409.335815,208.778412 1410.929810,208.778412 
	C1410.929810,227.740845 1410.929810,246.406281 1410.954590,265.540405 
z"/>
<path fill="#F2EFF9" opacity="1.000000" stroke="none" 
	d="
M1253.991333,253.575012 
	C1245.636597,253.999969 1237.307983,253.999985 1228.513672,253.999985 
	C1228.136230,253.533508 1228.229980,252.657608 1228.311401,252.658768 
	C1236.880615,252.779877 1245.448975,252.966888 1253.991333,253.575012 
z"/>
<path fill="#F2EFF9" opacity="1.000000" stroke="none" 
	d="
M1227.995728,439.435272 
	C1236.376343,439.000031 1244.704346,439.000000 1253.498901,439.000000 
	C1253.494507,439.625275 1253.030029,440.789764 1252.551758,440.795349 
	C1244.656494,440.887848 1236.759277,440.845306 1228.863159,440.774353 
	C1228.553833,440.771576 1228.249756,440.185028 1227.995728,439.435272 
z"/>
<path fill="#E8E6EA" opacity="1.000000" stroke="none" 
	d="
M764.651367,288.082336 
	C764.068237,288.351105 763.100830,288.625916 762.059998,288.596130 
	C762.746704,288.223785 763.506897,288.156097 764.651367,288.082336 
z"/>
<path fill="#F3F0FA" opacity="1.000000" stroke="none" 
	d="
M100.996666,286.109955 
	C102.156380,286.045715 103.316086,285.925262 104.475800,285.925232 
	C218.012085,285.921967 331.548370,285.927887 445.541992,286.482544 
	C445.998962,295.358704 445.998596,303.685577 445.998230,312.012451 
	C444.841705,312.094055 443.685150,312.247162 442.528625,312.247192 
	C328.990143,312.250336 215.451675,312.241882 101.338585,311.784180 
	C100.841537,302.926086 100.919106,294.518036 100.996666,286.109955 
z"/>
<path fill="#FFFEFF" opacity="1.000000" stroke="none" 
	d="
M447.209290,454.769714 
	C446.213654,454.651215 445.065765,454.277557 445.086090,453.985138 
	C445.276672,451.245392 445.950958,448.520142 445.956726,445.789551 
	C446.024200,413.813507 446.018066,381.837189 445.988098,349.861023 
	C445.979919,341.133362 446.993195,342.012024 438.369995,342.010864 
	C327.619080,341.996246 216.868179,342.005096 106.117287,341.969208 
	C104.198837,341.968597 102.280540,341.488342 100.192825,340.898438 
	C101.343155,340.469818 102.662842,340.291504 103.982536,340.291351 
	C217.720261,340.278046 331.457977,340.278473 445.195709,340.277985 
	C445.854156,340.277985 446.512573,340.278015 447.469940,340.278015 
	C447.611908,341.146606 447.846252,341.912598 447.846619,342.678741 
	C447.864166,379.148071 447.863159,415.617432 447.850098,452.086761 
	C447.849823,452.908630 447.686371,453.730438 447.209290,454.769714 
z"/>
<path fill="#FFFEFF" opacity="1.000000" stroke="none" 
	d="
M100.466324,367.486694 
	C101.496880,366.888397 102.971214,366.055054 104.446037,366.054169 
	C208.497589,365.993286 312.549164,365.994965 416.600708,366.040314 
	C417.978241,366.040924 419.355469,366.665375 420.897980,367.353210 
	C318.174622,367.695251 215.286148,367.683044 112.397659,367.669037 
	C108.568550,367.668518 104.739441,367.650208 100.466324,367.486694 
z"/>
<path fill="#FFFEFF" opacity="1.000000" stroke="none" 
	d="
M73.155586,425.551544 
	C72.700737,424.286438 72.048347,422.562622 72.047287,420.838409 
	C71.997238,339.367950 72.000290,257.897461 72.027977,176.427002 
	C72.028526,174.802429 72.392250,173.178009 72.932877,171.315033 
	C73.273445,255.748581 73.267670,340.420624 73.155586,425.551544 
z"/>
<path fill="#FCF6FD" opacity="1.000000" stroke="none" 
	d="
M446.434570,256.923950 
	C446.001709,248.253494 446.000183,239.630997 446.000397,230.545044 
	C446.622894,230.552872 447.779327,231.018112 447.784698,231.496323 
	C447.876831,239.689209 447.836639,247.883759 447.768219,256.077484 
	C447.765686,256.378113 447.179901,256.673859 446.434570,256.923950 
z"/>
<path fill="#FBF9FD" opacity="1.000000" stroke="none" 
	d="
M446.435059,312.068237 
	C445.998596,303.685577 445.998962,295.358704 446.001038,286.570068 
	C446.623016,286.581757 447.778137,287.049011 447.783661,287.529510 
	C447.874573,295.408386 447.831299,303.289001 447.759796,311.168701 
	C447.756897,311.489807 447.180908,311.805695 446.435059,312.068237 
z"/>
<path fill="#FBF9FD" opacity="1.000000" stroke="none" 
	d="
M100.561203,286.048462 
	C100.919106,294.518036 100.841537,302.926086 100.884102,311.673645 
	C100.359261,311.563416 99.157402,311.120056 99.152153,310.662994 
	C99.061096,302.727112 99.106583,294.789429 99.182281,286.852722 
	C99.185059,286.561157 99.797440,286.275421 100.561203,286.048462 
z"/>
<path fill="#FFFEFF" opacity="1.000000" stroke="none" 
	d="
M472.947083,146.250702 
	C473.130005,146.269684 473.232422,146.537201 473.182343,146.900177 
	C472.975403,146.830154 472.921021,146.664688 472.947083,146.250702 
z"/>
<path fill="#FCF6FD" opacity="1.000000" stroke="none" 
	d="
M99.168091,146.435440 
	C99.400246,146.469971 99.563904,146.686371 99.481598,146.942093 
	C99.235641,146.981430 99.099594,146.617310 99.168091,146.435440 
z"/>
<path fill="#FFFEFF" opacity="1.000000" stroke="none" 
	d="
M472.950806,453.254456 
	C473.145294,453.259949 473.261597,453.517090 473.237579,453.878448 
	C473.022369,453.823822 472.947479,453.664948 472.950806,453.254456 
z"/>
<path fill="#010102" opacity="1.000000" stroke="none" 
	d="
M901.971802,354.126892 
	C876.412354,367.455994 850.576477,350.612335 846.342346,325.113434 
	C844.369934,313.235840 845.939819,301.911499 852.580200,291.366089 
	C862.909058,274.963348 884.963196,268.969330 902.384094,279.396637 
	C916.410461,287.792175 923.616577,305.921600 921.288208,322.534271 
	C919.399292,336.011902 913.482483,346.416199 901.971802,354.126892 
z"/>
<path fill="#020202" opacity="1.000000" stroke="none" 
	d="
M1255.878418,327.038300 
	C1250.115234,300.355225 1265.644897,273.788940 1294.016235,274.386108 
	C1314.499878,274.817291 1328.411621,289.743256 1330.467651,309.895935 
	C1331.698975,321.965637 1329.842651,333.417847 1322.335693,343.649292 
	C1309.457031,361.201752 1284.119995,364.228943 1268.001343,349.094666 
	C1261.628906,343.111298 1257.541138,336.009277 1255.878418,327.038300 
z"/>
<path fill="#010102" opacity="1.000000" stroke="none" 
	d="
M1143.972168,277.825378 
	C1158.891968,285.666382 1165.456177,298.121552 1166.202881,314.208099 
	C1166.779541,326.632874 1163.797241,337.850250 1155.221313,347.086853 
	C1138.559448,365.032410 1110.977539,361.775269 1097.731567,341.896149 
	C1087.328369,326.283356 1088.205811,301.391815 1100.037964,287.238098 
	C1109.129395,276.362762 1126.843628,269.664246 1143.972168,277.825378 
z"/>
</svg>